SplineFontDB: 3.0
FontName: TaijituSerif
FullName: Taijitu Serif
FamilyName: Taijitu
Weight: Book
Copyright: Copyright (c) 2015, Gulliver Pembroke
UComments: "2015-1-23: Created with FontForge (http://fontforge.org)"
Version: 001.000
ItalicAngle: 0
UnderlinePosition: -354
UnderlineWidth: 204
Ascent: 1638
Descent: 410
InvalidEm: 0
LayerCount: 2
Layer: 0 0 "Back" 1
Layer: 1 0 "Fore" 0
XUID: [1021 275 1773992033 1378]
FSType: 0
OS2Version: 0
OS2_WeightWidthSlopeOnly: 0
OS2_UseTypoMetrics: 1
CreationTime: 1422062799
ModificationTime: 1422074442
PfmFamily: 17
TTFWeight: 400
TTFWidth: 5
LineGap: 87
VLineGap: 0
OS2TypoAscent: 1420
OS2TypoAOffset: 0
OS2TypoDescent: -442
OS2TypoDOffset: 0
OS2TypoLinegap: 307
OS2WinAscent: 1825
OS2WinAOffset: 0
OS2WinDescent: 443
OS2WinDOffset: 0
HheadAscent: 1825
HheadAOffset: 0
HheadDescent: -443
HheadDOffset: 0
OS2SubXSize: 1434
OS2SubYSize: 1331
OS2SubXOff: 0
OS2SubYOff: 293
OS2SupXSize: 1434
OS2SupYSize: 1331
OS2SupXOff: 0
OS2SupYOff: 928
OS2StrikeYSize: 102
OS2StrikeYPos: 530
OS2CapHeight: 0
OS2XHeight: 0
OS2Vendor: 'PfEd'
MarkAttachClasses: 1
DEI: 91125
LangName: 1033
Encoding: UnicodeBmp
UnicodeInterp: none
NameList: AGL For New Fonts
DisplaySize: -48
AntiAlias: 1
FitToEm: 1
WinInfo: 57304 38 14
BeginPrivate: 0
EndPrivate
BeginChars: 65536 76

StartChar: uniE000
Encoding: 57344 57344 0
Width: 1479
VWidth: 0
GlyphClass: 2
Flags: HW
LayerCount: 2
Back
Fore
SplineSet
937 454 m 1
 412 454 l 1
 320 240 l 2
 297.333333333 187.333333333 286 148 286 122 c 0
 286 101.333333333 295.833333333 83.1666666667 315.5 67.5 c 0
 335.166666667 51.8333333333 377.666666667 41.6666666667 443 37 c 1
 443 0 l 1
 16 0 l 1
 16 37 l 1
 72.6666666667 47 109.333333333 60 126 76 c 0
 160 108 197.666666667 173 239 271 c 2
 716 1387 l 1
 751 1387 l 1
 1223 259 l 2
 1261 168.333333333 1295.5 109.5 1326.5 82.5 c 0
 1357.5 55.5 1400.66666667 40.3333333333 1456 37 c 1
 1456 0 l 1
 921 0 l 1
 921 37 l 1
 975 39.6666666667 1011.5 48.6666666667 1030.5 64 c 0
 1049.5 79.3333333333 1059 98 1059 120 c 0
 1059 149.333333333 1045.66666667 195.666666667 1019 259 c 2
 937 454 l 1
909 528 m 1
 679 1076 l 1
 443 528 l 1
 909 528 l 1
EndSplineSet
EndChar

StartChar: uniE001
Encoding: 57345 57345 1
Width: 1821
VWidth: 0
GlyphClass: 2
Flags: HW
LayerCount: 2
Back
Fore
SplineSet
1027 1282 m 1
 1027 746 l 1
 1284 746 l 2
 1360.66666667 746 1414.66666667 760.333333333 1446 789 c 0
 1477.33333333 817.666666667 1495.66666667 869 1501 943 c 1
 1537 943 l 1
 1537 472 l 1
 1501 472 l 1
 1493 538.666666667 1482.16666667 583.5 1468.5 606.5 c 0
 1454.83333333 629.5 1432 648 1400 662 c 0
 1384.66666667 669.333333333 1346 673 1284 673 c 2
 1027 673 l 1
 1027 224 l 2
 1027 163.333333333 1029.33333333 127.166666667 1034 115.5 c 0
 1038.66666667 103.833333333 1048.33333333 94 1063 86 c 0
 1077.66666667 78 1104 74 1142 74 c 2
 1324 74 l 2
 1396.66666667 74 1452.66666667 80 1492 92 c 0
 1531.33333333 104 1569.33333333 127.333333333 1606 162 c 0
 1654.66666667 207.333333333 1694.66666667 267 1726 341 c 1
 1764 341 l 1
 1656 0 l 1
 638 0 l 1
 638 37 l 1
 689 37 l 2
 744.333333333 37 785 53.3333333333 811 86 c 0
 827 107.333333333 835 158.333333333 835 239 c 2
 835 525 l 1
 439 525 l 1
 315 292 l 2
 268.333333333 204 245 146.333333333 245 119 c 0
 245 100.333333333 255.166666667 83.1666666667 275.5 67.5 c 0
 295.833333333 51.8333333333 338 41.6666666667 402 37 c 1
 402 0 l 1
 -24 0 l 1
 -24 37 l 1
 5.33333333333 37.6666666667 30.5 44 51.5 56 c 0
 72.5 68 95.3333333333 89.6666666667 120 121 c 0
 144.666666667 152.333333333 176 203.333333333 214 274 c 2
 626 1045 l 2
 677.333333333 1140.33333333 703 1204.66666667 703 1238 c 0
 703 1259.33333333 694 1276 676 1288 c 0
 653.333333333 1304.66666667 604.666666667 1315 530 1319 c 1
 530 1356 l 1
 1641 1356 l 1
 1656 1058 l 1
 1622 1058 l 1
 1613.33333333 1126.66666667 1596.66666667 1179 1572 1215 c 0
 1554 1241 1528 1260 1494 1272 c 0
 1474.66666667 1278.66666667 1429.33333333 1282 1358 1282 c 2
 1027 1282 l 1
835 1282 m 1
 478 598 l 1
 835 598 l 1
 835 1282 l 1
EndSplineSet
EndChar

StartChar: uniE002
Encoding: 57346 57346 2
Width: 1366
VWidth: 0
Flags: HW
LayerCount: 2
Back
Fore
SplineSet
946 692 m 1
 1040 672 1110.33333333 640 1157 596 c 0
 1221.66666667 534.666666667 1254 459.666666667 1254 371 c 0
 1254 303.666666667 1232.66666667 239.166666667 1190 177.5 c 0
 1147.33333333 115.833333333 1088.83333333 70.8333333333 1014.5 42.5 c 0
 940.166666667 14.1666666667 826.666666667 0 674 0 c 2
 34 0 l 1
 34 37 l 1
 85 37 l 2
 141.666666667 37 182.333333333 55 207 91 c 0
 222.333333333 114.333333333 230 164 230 240 c 2
 230 1116 l 2
 230 1200 220.333333333 1253 201 1275 c 0
 175 1304.33333333 136.333333333 1319 85 1319 c 2
 34 1319 l 1
 34 1356 l 1
 620 1356 l 2
 729.333333333 1356 817 1348 883 1332 c 0
 983 1308 1059.33333333 1265.5 1112 1204.5 c 0
 1164.66666667 1143.5 1191 1073.33333333 1191 994 c 0
 1191 926 1170.33333333 865.166666667 1129 811.5 c 0
 1087.66666667 757.833333333 1026.66666667 718 946 692 c 1
422 746 m 1
 446.666666667 741.333333333 474.833333333 737.833333333 506.5 735.5 c 0
 538.166666667 733.166666667 573 732 611 732 c 0
 708.333333333 732 781.5 742.5 830.5 763.5 c 0
 879.5 784.5 917 816.666666667 943 860 c 0
 969 903.333333333 982 950.666666667 982 1002 c 0
 982 1081.33333333 949.666666667 1149 885 1205 c 0
 820.333333333 1261 726 1289 602 1289 c 0
 535.333333333 1289 475.333333333 1281.66666667 422 1267 c 1
 422 746 l 1
422 98 m 1
 499.333333333 80 575.666666667 71 651 71 c 0
 771.666666667 71 863.666666667 98.1666666667 927 152.5 c 0
 990.333333333 206.833333333 1022 274 1022 354 c 0
 1022 406.666666667 1007.66666667 457.333333333 979 506 c 0
 950.333333333 554.666666667 903.666666667 593 839 621 c 0
 774.333333333 649 694.333333333 663 599 663 c 0
 557.666666667 663 522.333333333 662.333333333 493 661 c 0
 463.666666667 659.666666667 440 657.333333333 422 654 c 1
 422 98 l 1
EndSplineSet
EndChar

StartChar: uniE003
Encoding: 57347 57347 3
Width: 1176
VWidth: 0
Flags: HW
LayerCount: 2
Back
Fore
SplineSet
1009 1356 m 1
 1023 1060 l 1
 987 1060 l 1
 965.666666667 1156 932.833333333 1217 888.5 1243 c 0
 844.166666667 1269 765.333333333 1282 652 1282 c 2
 424 1282 l 1
 424 745 l 1
 478 745 l 2
 644 745 766 734.5 844 713.5 c 0
 922 692.5 985.5 652.333333333 1034.5 593 c 0
 1083.5 533.666666667 1108 462.333333333 1108 379 c 0
 1108 278.333333333 1070.66666667 190 996 114 c 0
 921.333333333 38 792.666666667 0 610 0 c 2
 36 0 l 1
 36 37 l 1
 120 39.6666666667 173.666666667 53 197 77 c 0
 220.333333333 101 232 157.666666667 232 247 c 2
 232 1109 l 2
 232 1177.66666667 227.166666667 1224 217.5 1248 c 0
 207.833333333 1272 192 1289 170 1299 c 0
 148 1309 107.333333333 1315.66666667 48 1319 c 1
 48 1356 l 1
 1009 1356 l 1
424 81 m 1
 482.666666667 71.6666666667 528.333333333 67 561 67 c 0
 643 67 717.166666667 94.3333333333 783.5 149 c 0
 849.833333333 203.666666667 883 279.333333333 883 376 c 0
 883 476 848.333333333 550.166666667 779 598.5 c 0
 709.666666667 646.833333333 621.666666667 671 515 671 c 0
 485 671 454.666666667 668.333333333 424 663 c 1
 424 81 l 1
EndSplineSet
EndChar

StartChar: uniE004
Encoding: 57348 57348 4
Width: 1184
VWidth: 0
Flags: HW
LayerCount: 2
Back
Fore
SplineSet
1125 1356 m 1
 1130 1039 l 1
 1091 1039 l 1
 1088.33333333 1103 1074.66666667 1154.33333333 1050 1193 c 0
 1025.33333333 1231.66666667 995.166666667 1256.16666667 959.5 1266.5 c 0
 923.833333333 1276.83333333 872.333333333 1282 805 1282 c 2
 425 1282 l 1
 425 247 l 2
 425 157.666666667 436.5 101 459.5 77 c 0
 482.5 53 535.666666667 39.6666666667 619 37 c 1
 619 0 l 1
 37 0 l 1
 37 37 l 1
 121 39.6666666667 174.666666667 53 198 77 c 0
 221.333333333 101 233 157.666666667 233 247 c 2
 233 1109 l 2
 233 1198.33333333 221.333333333 1255 198 1279 c 0
 174.666666667 1303 121 1316.33333333 37 1319 c 1
 37 1356 l 1
 1125 1356 l 1
EndSplineSet
EndChar

StartChar: uniE005
Encoding: 57349 57349 5
Width: 1139
VWidth: 0
Flags: HW
LayerCount: 2
Back
Fore
SplineSet
1011 1030 m 0
 1011 920.666666667 961.333333333 826.666666667 862 748 c 0
 813.333333333 710 736.666666667 662.333333333 632 605 c 0
 524 547 447 500.333333333 401 465 c 0
 325.666666667 407.666666667 288 342.333333333 288 269 c 0
 288 199.666666667 316.333333333 144.333333333 373 103 c 0
 424.333333333 65.6666666667 486 47 558 47 c 0
 624.666666667 47 687.666666667 61.3333333333 747 90 c 0
 810.333333333 120 858.333333333 162 891 216 c 0
 920.333333333 264.666666667 943.666666667 337.333333333 961 434 c 1
 998 434 l 1
 998 -31 l 1
 961 -31 l 1
 953.666666667 20.3333333333 933.333333333 46 900 46 c 0
 876.666666667 46 836 36.3333333333 778 17 c 0
 711.333333333 -5.66666666667 668 -18.6666666667 648 -22 c 0
 612.666666667 -28 575.666666667 -31 537 -31 c 0
 422.333333333 -31 324 2.66666666667 242 70 c 0
 154 142 110 234 110 346 c 0
 110 459.333333333 158.333333333 554 255 630 c 0
 301 666 387.333333333 718 514 786 c 0
 668.666666667 869.333333333 767 936 809 986 c 0
 837.666666667 1020.66666667 852 1058.33333333 852 1099 c 0
 852 1160.33333333 826.666666667 1211 776 1251 c 0
 729.333333333 1288.33333333 674.666666667 1307 612 1307 c 0
 549.333333333 1307 489.666666667 1291.33333333 433 1260 c 0
 376.333333333 1228.66666667 332.5 1186.16666667 301.5 1132.5 c 0
 270.5 1078.83333333 249 1007.33333333 237 918 c 1
 200 918 l 1
 200 1387 l 1
 237 1387 l 1
 248.333333333 1335 271.333333333 1309 306 1309 c 0
 320.666666667 1309 347 1317.33333333 385 1334 c 0
 465 1369.33333333 541.333333333 1387 614 1387 c 0
 722 1387 814 1355 890 1291 c 0
 970.666666667 1223 1011 1136 1011 1030 c 0
EndSplineSet
EndChar

StartChar: uniE006
Encoding: 57350 57350 6
Width: 1317
VWidth: 0
Flags: HW
LayerCount: 2
Back
Fore
SplineSet
50 0 m 1
 658 1387 l 1
 692 1387 l 1
 1266 0 l 1
 50 0 l 1
1027 85 m 1
 622 1081 l 1
 184 85 l 1
 1027 85 l 1
EndSplineSet
EndChar

StartChar: uniE007
Encoding: 57351 57351 7
Width: 1479
VWidth: 0
Flags: HW
LayerCount: 2
Back
Fore
SplineSet
35 0 m 1
 35 37 l 1
 86 37 l 2
 143.333333333 37 184 55.3333333333 208 92 c 0
 222.666666667 114 230 163.333333333 230 240 c 2
 230 1116 l 2
 230 1200.66666667 220.666666667 1253.66666667 202 1275 c 0
 176 1304.33333333 137.333333333 1319 86 1319 c 2
 35 1319 l 1
 35 1356 l 1
 587 1356 l 2
 789.666666667 1356 943.833333333 1333 1049.5 1287 c 0
 1155.16666667 1241 1240.16666667 1164.33333333 1304.5 1057 c 0
 1368.83333333 949.666666667 1401 825.666666667 1401 685 c 0
 1401 496.333333333 1343.66666667 338.666666667 1229 212 c 0
 1100.33333333 70.6666666667 904.333333333 0 641 0 c 2
 35 0 l 1
422 98 m 1
 506.666666667 79.3333333333 577.666666667 70 635 70 c 0
 789.666666667 70 918 124.333333333 1020 233 c 0
 1122 341.666666667 1173 489 1173 675 c 0
 1173 862.333333333 1122 1010 1020 1118 c 0
 918 1226 787 1280 627 1280 c 0
 567 1280 498.666666667 1270.33333333 422 1251 c 1
 422 98 l 1
EndSplineSet
EndChar

StartChar: uniE008
Encoding: 57352 57352 8
Width: 1251
VWidth: 0
Flags: HW
LayerCount: 2
Back
Fore
SplineSet
428 1282 m 1
 428 746 l 1
 726 746 l 2
 803.333333333 746 855 757.666666667 881 781 c 0
 915.666666667 811.666666667 935 865.666666667 939 943 c 1
 976 943 l 1
 976 471 l 1
 939 471 l 1
 929.666666667 537 920.333333333 579.333333333 911 598 c 0
 899 621.333333333 879.333333333 639.666666667 852 653 c 0
 824.666666667 666.333333333 782.666666667 673 726 673 c 2
 428 673 l 1
 428 226 l 2
 428 166 430.666666667 129.5 436 116.5 c 0
 441.333333333 103.5 450.666666667 93.1666666667 464 85.5 c 0
 477.333333333 77.8333333333 502.666666667 74 540 74 c 2
 770 74 l 2
 846.666666667 74 902.333333333 79.3333333333 937 90 c 0
 971.666666667 100.666666667 1005 121.666666667 1037 153 c 0
 1078.33333333 194.333333333 1120.66666667 256.666666667 1164 340 c 1
 1204 340 l 1
 1087 0 l 1
 42 0 l 1
 42 37 l 1
 90 37 l 2
 122 37 152.333333333 44.6666666667 181 60 c 0
 202.333333333 70.6666666667 216.833333333 86.6666666667 224.5 108 c 0
 232.166666667 129.333333333 236 173 236 239 c 2
 236 1120 l 2
 236 1206 227.333333333 1259 210 1279 c 0
 186 1305.66666667 146 1319 90 1319 c 2
 42 1319 l 1
 42 1356 l 1
 1087 1356 l 1
 1102 1059 l 1
 1063 1059 l 1
 1049 1130.33333333 1033.5 1179.33333333 1016.5 1206 c 0
 999.5 1232.66666667 974.333333333 1253 941 1267 c 0
 914.333333333 1277 867.333333333 1282 800 1282 c 2
 428 1282 l 1
EndSplineSet
EndChar

StartChar: uniE009
Encoding: 57353 57353 9
Width: 1352
VWidth: 0
Flags: HW
LayerCount: 2
Back
Fore
SplineSet
1237 931 m 1
 1200 931 l 1
 1182 1047.66666667 1127.33333333 1141.16666667 1036 1211.5 c 0
 944.666666667 1281.83333333 851.333333333 1317 756 1317 c 0
 647.333333333 1317 548.666666667 1270.5 460 1177.5 c 0
 371.333333333 1084.5 320 936 306 732 c 1
 834 732 l 1
 834 658 l 1
 306 658 l 1
 306 530 329.333333333 419 376 325 c 0
 422.666666667 231 480.333333333 161 549 115 c 0
 617.666666667 69 699.666666667 46 795 46 c 0
 983 46 1140 131.666666667 1266 303 c 1
 1293 282 l 1
 1164.33333333 73.3333333333 985.333333333 -31 756 -31 c 0
 556 -31 392.5 37.1666666667 265.5 173.5 c 0
 138.5 309.833333333 75 476.666666667 75 674 c 0
 75 817.333333333 109 942.5 177 1049.5 c 0
 245 1156.5 327.5 1239.5 424.5 1298.5 c 0
 521.5 1357.5 632.333333333 1387 757 1387 c 0
 843.666666667 1387 940.333333333 1367.66666667 1047 1329 c 0
 1075 1319 1094 1314 1104 1314 c 0
 1128 1314 1153.33333333 1337.66666667 1180 1385 c 1
 1214 1385 l 1
 1237 931 l 1
EndSplineSet
EndChar

StartChar: uniE00A
Encoding: 57354 57354 10
Width: 1251
VWidth: 0
Flags: HW
LayerCount: 2
Back
Fore
SplineSet
1178 1356 m 1
 287 82 l 1
 843 82 l 2
 928.333333333 82 993.833333333 100.666666667 1039.5 138 c 0
 1085.16666667 175.333333333 1125.66666667 251 1161 365 c 1
 1194 359 l 1
 1130 0 l 1
 26 0 l 1
 26 37 l 1
 896 1275 l 1
 462 1275 l 2
 390 1275 337.833333333 1267.16666667 305.5 1251.5 c 0
 273.166666667 1235.83333333 248.5 1213.16666667 231.5 1183.5 c 0
 214.5 1153.83333333 199 1098.33333333 185 1017 c 1
 147 1017 l 1
 175 1356 l 1
 1178 1356 l 1
EndSplineSet
EndChar

StartChar: uniE00B
Encoding: 57355 57355 11
Width: 1026
VWidth: 0
Flags: HW
LayerCount: 2
Back
Fore
SplineSet
102 991 m 1
 102 1385 l 1
 137 1385 l 1
 147.666666667 1341 172.333333333 1319 211 1319 c 0
 225.666666667 1319 257 1328 305 1346 c 0
 380.333333333 1373.33333333 459.333333333 1387 542 1387 c 0
 654 1387 744 1353.33333333 812 1286 c 0
 880 1218.66666667 914 1140 914 1050 c 0
 914 968 888.333333333 897.833333333 837 839.5 c 0
 785.666666667 781.166666667 717.666666667 738.333333333 633 711 c 1
 725 694.333333333 799.333333333 652.5 856 585.5 c 0
 912.666666667 518.5 941 439.666666667 941 349 c 0
 941 237 897.666666667 145.666666667 811 75 c 0
 724.333333333 4.33333333333 616.666666667 -31 488 -31 c 0
 296.666666667 -31 148.333333333 59.6666666667 43 241 c 1
 77 263 l 1
 111 207.666666667 160.333333333 160 225 120 c 0
 289.666666667 80 359.333333333 60 434 60 c 0
 522.666666667 60 591.5 89.5 640.5 148.5 c 0
 689.5 207.5 714 279.666666667 714 365 c 0
 714 453 683 527.333333333 621 588 c 0
 559 648.666666667 456.333333333 679 313 679 c 1
 313 745 l 1
 414.333333333 745 490.666666667 755.666666667 542 777 c 0
 593.333333333 798.333333333 635 833 667 881 c 0
 699 929 715 984.666666667 715 1048 c 0
 715 1121.33333333 692.666666667 1181.33333333 648 1228 c 0
 603.333333333 1274.66666667 542.666666667 1298 466 1298 c 0
 370.666666667 1298 296.166666667 1269.83333333 242.5 1213.5 c 0
 188.833333333 1157.16666667 153.666666667 1083 137 991 c 1
 102 991 l 1
EndSplineSet
EndChar

StartChar: uniE00C
Encoding: 57356 57356 12
Width: 1479
VWidth: 0
Flags: HW
LayerCount: 2
Back
Fore
SplineSet
421 727 m 1
 1051 727 l 1
 1051 1115 l 2
 1051 1184.33333333 1046.66666667 1230 1038 1252 c 0
 1031.33333333 1268.66666667 1017.33333333 1283 996 1295 c 0
 967.333333333 1311 937 1319 905 1319 c 2
 857 1319 l 1
 857 1356 l 1
 1437 1356 l 1
 1437 1319 l 1
 1389 1319 l 2
 1357 1319 1326.66666667 1311.33333333 1298 1296 c 0
 1276.66666667 1285.33333333 1262.16666667 1269.16666667 1254.5 1247.5 c 0
 1246.83333333 1225.83333333 1243 1181.66666667 1243 1115 c 2
 1243 240 l 2
 1243 171.333333333 1247.33333333 126 1256 104 c 0
 1262.66666667 87.3333333333 1276.33333333 73 1297 61 c 0
 1326.33333333 45 1357 37 1389 37 c 2
 1437 37 l 1
 1437 0 l 1
 857 0 l 1
 857 37 l 1
 905 37 l 2
 960.333333333 37 1000.66666667 53.3333333333 1026 86 c 0
 1042.66666667 107.333333333 1051 158.666666667 1051 240 c 2
 1051 653 l 1
 421 653 l 1
 421 240 l 2
 421 171.333333333 425.333333333 126 434 104 c 0
 440.666666667 87.3333333333 454.666666667 73 476 61 c 0
 504.666666667 45 535 37 567 37 c 2
 616 37 l 1
 616 0 l 1
 35 0 l 1
 35 37 l 1
 83 37 l 2
 139 37 179.666666667 53.3333333333 205 86 c 0
 221 107.333333333 229 158.666666667 229 240 c 2
 229 1115 l 2
 229 1184.33333333 224.666666667 1230 216 1252 c 0
 209.333333333 1268.66666667 195.666666667 1283 175 1295 c 0
 145.666666667 1311 115 1319 83 1319 c 2
 35 1319 l 1
 35 1356 l 1
 616 1356 l 1
 616 1319 l 1
 567 1319 l 2
 535 1319 504.666666667 1311.33333333 476 1296 c 0
 455.333333333 1285.33333333 441 1269.16666667 433 1247.5 c 0
 425 1225.83333333 421 1181.66666667 421 1115 c 2
 421 727 l 1
EndSplineSet
EndChar

StartChar: uniE00D
Encoding: 57357 57357 13
Width: 1479
VWidth: 0
Flags: HW
LayerCount: 2
Back
Fore
SplineSet
1400 686 m 0
 1400 488.666666667 1338.66666667 321.333333333 1216 184 c 0
 1088.66666667 40.6666666667 927.666666667 -31 733 -31 c 0
 535.666666667 -31 374.666666667 39.3333333333 250 180 c 0
 131.333333333 315.333333333 72 483 72 683 c 0
 72 898.333333333 145.333333333 1074 292 1210 c 0
 419.333333333 1328 571.666666667 1387 749 1387 c 0
 937 1387 1093.66666667 1316.33333333 1219 1175 c 0
 1339.66666667 1039.66666667 1400 876.666666667 1400 686 c 0
1170 727 m 1
 1163.33333333 893.666666667 1130.33333333 1026.66666667 1071 1126 c 0
 995.666666667 1251.33333333 882 1314 730 1314 c 0
 583.333333333 1314 472.666666667 1250 398 1122 c 0
 338.666666667 1019.33333333 306.666666667 887.666666667 302 727 c 1
 1170 727 l 1
1171 653 m 1
 301 653 l 1
 305.666666667 447.666666667 353 288.666666667 443 176 c 0
 515 85.3333333333 611 40 731 40 c 0
 888.333333333 40 1004.66666667 106.333333333 1080 239 c 0
 1140.66666667 345.666666667 1171 483.666666667 1171 653 c 1
EndSplineSet
EndChar

StartChar: uniE00E
Encoding: 57358 57358 14
Width: 682
VWidth: 0
Flags: HW
LayerCount: 2
Back
Fore
SplineSet
632 37 m 5
 632 0 l 5
 51 0 l 5
 51 37 l 5
 99 37 l 6
 155 37 195.666666667 53.3333333333 221 86 c 4
 237 107.333333333 245 158.666666667 245 240 c 6
 245 1116 l 6
 245 1184.66666667 240.666666667 1230 232 1252 c 4
 225.333333333 1268.66666667 211.666666667 1283 191 1295 c 4
 161.666666667 1311 131 1319 99 1319 c 6
 51 1319 l 5
 51 1356 l 5
 632 1356 l 5
 632 1319 l 5
 583 1319 l 6
 527.666666667 1319 487.333333333 1302.66666667 462 1270 c 4
 445.333333333 1248.66666667 437 1197.33333333 437 1116 c 6
 437 240 l 6
 437 171.333333333 441.333333333 126 450 104 c 4
 456.666666667 87.3333333333 470.666666667 73 492 61 c 4
 520.666666667 45 551 37 583 37 c 6
 632 37 l 5
EndSplineSet
EndChar

StartChar: uniE00F
Encoding: 57359 57359 15
Width: 797
VWidth: 0
Flags: HW
LayerCount: 2
Back
Fore
SplineSet
204 1319 m 1
 204 1356 l 1
 785 1356 l 1
 785 1319 l 1
 736 1319 l 2
 680.666666667 1319 640.333333333 1302.66666667 615 1270 c 0
 599 1248.66666667 591 1197.33333333 591 1116 c 2
 591 453 l 2
 591 351 579.833333333 268.333333333 557.5 205 c 0
 535.166666667 141.666666667 496.666666667 86.5 442 39.5 c 0
 387.333333333 -7.5 321.333333333 -31 244 -31 c 0
 181.333333333 -31 132 -15.5 96 15.5 c 0
 60 46.5 42 82 42 122 c 0
 42 154.666666667 50.3333333333 179.333333333 67 196 c 0
 89 216.666666667 114.666666667 227 144 227 c 0
 165.333333333 227 184.5 220 201.5 206 c 0
 218.5 192 240 154.666666667 266 94 c 0
 281.333333333 58 301 40 325 40 c 0
 343 40 359.833333333 51 375.5 73 c 0
 391.166666667 95 399 134 399 190 c 2
 399 1116 l 2
 399 1184.66666667 394.666666667 1230 386 1252 c 0
 379.333333333 1268.66666667 365.333333333 1283 344 1295 c 0
 315.333333333 1311 285 1319 253 1319 c 2
 204 1319 l 1
EndSplineSet
EndChar

StartChar: uniE010
Encoding: 57360 57360 16
Width: 1479
VWidth: 0
Flags: HW
LayerCount: 2
Back
Fore
SplineSet
612 752 m 1
 1112 255 l 2
 1194 173 1264 117.166666667 1322 87.5 c 0
 1380 57.8333333333 1438 41 1496 37 c 1
 1496 0 l 1
 851 0 l 1
 851 37 l 1
 889.666666667 37 917.5 43.5 934.5 56.5 c 0
 951.5 69.5 960 84 960 100 c 0
 960 116 956.833333333 130.333333333 950.5 143 c 0
 944.166666667 155.666666667 923.333333333 179.333333333 888 214 c 2
 420 677 l 1
 420 240 l 2
 420 171.333333333 424.333333333 126 433 104 c 0
 439.666666667 87.3333333333 453.666666667 73 475 61 c 0
 503.666666667 45 534 37 566 37 c 2
 612 37 l 1
 612 0 l 1
 34 0 l 1
 34 37 l 1
 82 37 l 2
 138 37 178.666666667 53.3333333333 204 86 c 0
 220 107.333333333 228 158.666666667 228 240 c 2
 228 1116 l 2
 228 1184.66666667 223.666666667 1230.33333333 215 1253 c 0
 208.333333333 1269 194.666666667 1283 174 1295 c 0
 144.666666667 1311 114 1319 82 1319 c 2
 34 1319 l 1
 34 1356 l 1
 612 1356 l 1
 612 1319 l 1
 566 1319 l 2
 534.666666667 1319 504.333333333 1311.33333333 475 1296 c 0
 454.333333333 1285.33333333 440 1269.33333333 432 1248 c 0
 424 1226.66666667 420 1182.66666667 420 1116 c 2
 420 701 l 1
 433.333333333 713.666666667 479 756 557 828 c 0
 755 1009.33333333 874.666666667 1130.33333333 916 1191 c 0
 934 1217.66666667 943 1241 943 1261 c 0
 943 1276.33333333 936 1289.83333333 922 1301.5 c 0
 908 1313.16666667 884.333333333 1319 851 1319 c 2
 820 1319 l 1
 820 1356 l 1
 1318 1356 l 1
 1318 1319 l 1
 1288.66666667 1318.33333333 1262 1314.33333333 1238 1307 c 0
 1214 1299.66666667 1184.66666667 1285.5 1150 1264.5 c 0
 1115.33333333 1243.5 1072.66666667 1209.66666667 1022 1163 c 0
 1007.33333333 1149.66666667 939.666666667 1081.33333333 819 958 c 2
 612 752 l 1
EndSplineSet
EndChar

StartChar: uniE011
Encoding: 57361 57361 17
Width: 1479
VWidth: 0
Flags: HW
LayerCount: 2
Back
Fore
SplineSet
1054 1132 m 1
 1054 1213.33333333 1040.83333333 1264.83333333 1014.5 1286.5 c 0
 988.166666667 1308.16666667 935 1319 855 1319 c 1
 855 1356 l 1
 1442 1356 l 1
 1442 1319 l 1
 1358 1316.33333333 1304.33333333 1303 1281 1279 c 0
 1257.66666667 1255 1246 1198.33333333 1246 1109 c 2
 1246 247 l 2
 1246 157.666666667 1257.66666667 101 1281 77 c 0
 1304.33333333 53 1358 39.6666666667 1442 37 c 1
 1442 0 l 1
 855 0 l 1
 855 37 l 1
 941 39.6666666667 995.666666667 53.1666666667 1019 77.5 c 0
 1042.33333333 101.833333333 1054 158.333333333 1054 247 c 2
 1054 1025 l 1
 425 219 l 1
 425.666666667 161 429.5 122.166666667 436.5 102.5 c 0
 443.5 82.8333333333 459.833333333 67.3333333333 485.5 56 c 0
 511.166666667 44.6666666667 556.666666667 38.3333333333 622 37 c 1
 622 0 l 1
 37 0 l 1
 37 37 l 1
 121 39.6666666667 174.666666667 53 198 77 c 0
 221.333333333 101 233 157.666666667 233 247 c 2
 233 1109 l 2
 233 1198.33333333 221.333333333 1255 198 1279 c 0
 174.666666667 1303 121 1316.33333333 37 1319 c 1
 37 1356 l 1
 622 1356 l 1
 622 1319 l 1
 537.333333333 1316.33333333 483.333333333 1303 460 1279 c 0
 436.666666667 1255 425 1198.33333333 425 1109 c 2
 425 328 l 1
 1054 1132 l 1
EndSplineSet
EndChar

StartChar: uniE012
Encoding: 57362 57362 18
Width: 1485
VWidth: 0
Flags: HW
LayerCount: 2
Back
Fore
SplineSet
28 0 m 1
 28 37 l 1
 79.3333333333 45 118.666666667 61.6666666667 146 87 c 0
 173.333333333 112.333333333 202 161 232 233 c 2
 705 1387 l 1
 742 1387 l 1
 1246 227 l 2
 1280 148.333333333 1309.33333333 97.5 1334 74.5 c 0
 1358.66666667 51.5 1402 39 1464 37 c 1
 1464 0 l 1
 911 0 l 1
 911 37 l 1
 974.333333333 42.3333333333 1015.16666667 53 1033.5 69 c 0
 1051.83333333 85 1061 105.666666667 1061 131 c 0
 1061 162.333333333 1045.66666667 213.333333333 1015 284 c 2
 670 1079 l 1
 350 294 l 2
 320 221.333333333 305 168 305 134 c 0
 305 106 314.333333333 83.8333333333 333 67.5 c 0
 351.666666667 51.1666666667 389.333333333 41 446 37 c 1
 446 0 l 1
 28 0 l 1
EndSplineSet
EndChar

StartChar: uniE013
Encoding: 57363 57363 19
Width: 1821
VWidth: 0
Flags: HW
LayerCount: 2
Back
Fore
SplineSet
838 0 m 1
 314 1141 l 1
 314 235 l 2
 314 151.666666667 323 99.6666666667 341 79 c 0
 365.666666667 51 404.666666667 37 458 37 c 2
 506 37 l 1
 506 0 l 1
 34 0 l 1
 34 37 l 1
 82 37 l 2
 139.333333333 37 180 54.3333333333 204 89 c 0
 218.666666667 110.333333333 226 159 226 235 c 2
 226 1121 l 2
 226 1181 219.333333333 1224.33333333 206 1251 c 0
 196.666666667 1270.33333333 179.5 1286.5 154.5 1299.5 c 0
 129.5 1312.5 89.3333333333 1319 34 1319 c 1
 34 1356 l 1
 418 1356 l 1
 910 295 l 1
 1394 1356 l 1
 1778 1356 l 1
 1778 1319 l 1
 1731 1319 l 2
 1673 1319 1632 1301.66666667 1608 1267 c 0
 1593.33333333 1245.66666667 1586 1197 1586 1121 c 2
 1586 235 l 2
 1586 151.666666667 1595.33333333 99.6666666667 1614 79 c 0
 1638.66666667 51 1677.66666667 37 1731 37 c 2
 1778 37 l 1
 1778 0 l 1
 1202 0 l 1
 1202 37 l 1
 1250 37 l 2
 1308 37 1348.66666667 54.3333333333 1372 89 c 0
 1386.66666667 110.333333333 1394 159 1394 235 c 2
 1394 1141 l 1
 871 0 l 1
 838 0 l 1
EndSplineSet
EndChar

StartChar: uniE014
Encoding: 57364 57364 20
Width: 1479
VWidth: 0
Flags: HW
LayerCount: 2
Back
Fore
SplineSet
-27 1356 m 1
 341 1356 l 1
 1170 339 l 1
 1170 1121 l 2
 1170 1204.33333333 1160.66666667 1256.33333333 1142 1277 c 0
 1117.33333333 1305 1078.33333333 1319 1025 1319 c 2
 978 1319 l 1
 978 1356 l 1
 1450 1356 l 1
 1450 1319 l 1
 1402 1319 l 2
 1344.66666667 1319 1304 1301.66666667 1280 1267 c 0
 1265.33333333 1245.66666667 1258 1197 1258 1121 c 2
 1258 -22 l 1
 1222 -22 l 1
 328 1070 l 1
 328 235 l 2
 328 151.666666667 337 99.6666666667 355 79 c 0
 380.333333333 51 419.333333333 37 472 37 c 2
 520 37 l 1
 520 0 l 1
 48 0 l 1
 48 37 l 1
 95 37 l 2
 153 37 194 54.3333333333 218 89 c 0
 232.666666667 110.333333333 240 159 240 235 c 2
 240 1178 l 1
 200.666666667 1224 170.833333333 1254.33333333 150.5 1269 c 0
 130.166666667 1283.66666667 100.333333333 1297.33333333 61 1310 c 0
 41.6666666667 1316 12.3333333333 1319 -27 1319 c 1
 -27 1356 l 1
EndSplineSet
EndChar

StartChar: uniE015
Encoding: 57365 57365 21
Width: 1757
VWidth: 0
Flags: HW
LayerCount: 2
Back
Fore
SplineSet
978 1356 m 1
 1691 1356 l 1
 1706 1056 l 1
 1666 1056 l 1
 1654.66503906 1173.33203125 1610.99804688 1243.33203125 1535 1266 c 0
 1499.66503906 1276.66503906 1435.99902344 1281.99902344 1344 1282 c 2
 1258 1282 l 1
 1258 -22 l 1
 1222 -22 l 1
 328 1070 l 1
 328 235 l 2
 328 151.666992188 337 99.6669921875 355 79 c 0
 380.333007812 51 419.333007812 37 472 37 c 2
 520 37 l 1
 520 0 l 1
 48 0 l 1
 48 37 l 1
 95 37 l 2
 153 37 194 54.3330078125 218 89 c 0
 232.666992188 110.333007812 240 159 240 235 c 2
 240 1178 l 1
 200.666992188 1224 170.833007812 1254.33300781 150.5 1269 c 0
 130.166992188 1283.66699219 100.333007812 1297.33300781 61 1310 c 0
 41.6669921875 1316 12.3330078125 1319 -27 1319 c 1
 -27 1356 l 1
 341 1356 l 1
 1170 339 l 1
 1170 1121 l 2
 1170 1204.33300781 1160.66699219 1256.33300781 1142 1277 c 0
 1117.33300781 1305 1078.33300781 1319 1025 1319 c 2
 978 1319 l 1
 978 1356 l 1
EndSplineSet
EndChar

StartChar: uniE016
Encoding: 57366 57366 22
Width: 1479
VWidth: 0
Flags: HW
LayerCount: 2
Back
Fore
SplineSet
749 1387 m 0
 925 1387 1077.5 1320.16666667 1206.5 1186.5 c 0
 1335.5 1052.83333333 1400 886 1400 686 c 0
 1400 480 1335 309 1205 173 c 0
 1075 37 917.666666667 -31 733 -31 c 0
 546.333333333 -31 389.5 35.3333333333 262.5 168 c 0
 135.5 300.666666667 72 472.333333333 72 683 c 0
 72 898.333333333 145.333333333 1074 292 1210 c 0
 419.333333333 1328 571.666666667 1387 749 1387 c 0
730 1314 m 0
 608.666666667 1314 511.333333333 1269 438 1179 c 0
 346.666666667 1067 301 903 301 687 c 0
 301 465.666666667 348.333333333 295.333333333 443 176 c 0
 515.666666667 85.3333333333 611.666666667 40 731 40 c 0
 858.333333333 40 963.5 89.6666666667 1046.5 189 c 0
 1129.5 288.333333333 1171 445 1171 659 c 0
 1171 891 1125.33333333 1064 1034 1178 c 0
 960.666666667 1268.66666667 859.333333333 1314 730 1314 c 0
EndSplineSet
EndChar

StartChar: uniE017
Encoding: 57367 57367 23
Width: 1479
VWidth: 0
Flags: HW
LayerCount: 2
Back
Fore
SplineSet
1054 1282 m 1
 425 1282 l 1
 425 247 l 2
 425 157.666666667 436.5 101 459.5 77 c 0
 482.5 53 536.333333333 39.6666666667 621 37 c 1
 621 0 l 1
 37 0 l 1
 37 37 l 1
 121 39.6666666667 174.666666667 53 198 77 c 0
 221.333333333 101 233 157.666666667 233 247 c 2
 233 1109 l 2
 233 1198.33333333 221.333333333 1255 198 1279 c 0
 174.666666667 1303 121 1316.33333333 37 1319 c 1
 37 1356 l 1
 1442 1356 l 1
 1442 1319 l 1
 1358 1316.33333333 1304.33333333 1303 1281 1279 c 0
 1257.66666667 1255 1246 1198.33333333 1246 1109 c 2
 1246 247 l 2
 1246 157.666666667 1257.66666667 101 1281 77 c 0
 1304.33333333 53 1358 39.6666666667 1442 37 c 1
 1442 0 l 1
 859 0 l 1
 859 37 l 1
 942.333333333 39.6666666667 995.666666667 52.8333333333 1019 76.5 c 0
 1042.33333333 100.166666667 1054 157 1054 247 c 2
 1054 1282 l 1
EndSplineSet
EndChar

StartChar: uniE018
Encoding: 57368 57368 24
Width: 1139
VWidth: 0
Flags: HW
LayerCount: 2
Back
Fore
SplineSet
420 635 m 1
 420 240 l 2
 420 154.666666667 429.333333333 101.666666667 448 81 c 0
 473.333333333 51.6666666667 511.666666667 37 563 37 c 2
 615 37 l 1
 615 0 l 1
 34 0 l 1
 34 37 l 1
 85 37 l 2
 142.333333333 37 183.333333333 55.6666666667 208 93 c 0
 221.333333333 113.666666667 228 162.666666667 228 240 c 2
 228 1116 l 2
 228 1201.33333333 219 1254.33333333 201 1275 c 0
 175 1304.33333333 136.333333333 1319 85 1319 c 2
 34 1319 l 1
 34 1356 l 1
 531 1356 l 2
 652.333333333 1356 748 1343.5 818 1318.5 c 0
 888 1293.5 947 1251.33333333 995 1192 c 0
 1043 1132.66666667 1067 1062.33333333 1067 981 c 0
 1067 870.333333333 1030.5 780.333333333 957.5 711 c 0
 884.5 641.666666667 781.333333333 607 648 607 c 0
 615.333333333 607 580 609.333333333 542 614 c 0
 504 618.666666667 463.333333333 625.666666667 420 635 c 1
420 692 m 1
 455.333333333 685.333333333 486.666666667 680.333333333 514 677 c 0
 541.333333333 673.666666667 564.666666667 672 584 672 c 0
 653.333333333 672 713.166666667 698.833333333 763.5 752.5 c 0
 813.833333333 806.166666667 839 875.666666667 839 961 c 0
 839 1019.66666667 827 1074.16666667 803 1124.5 c 0
 779 1174.83333333 745 1212.5 701 1237.5 c 0
 657 1262.5 607 1275 551 1275 c 0
 517 1275 473.333333333 1268.66666667 420 1256 c 1
 420 692 l 1
EndSplineSet
EndChar

StartChar: uniE019
Encoding: 57369 57369 25
Width: 1192
VWidth: 0
Flags: HW
LayerCount: 2
Back
Fore
SplineSet
32 1356 m 1
 1049 1356 l 1
 1076 1015 l 1
 1038 1015 l 1
 1033.33333333 1082.33333333 1022 1133.83333333 1004 1169.5 c 0
 986 1205.16666667 961.333333333 1231 930 1247 c 0
 898.666666667 1263 849 1271 781 1271 c 2
 318 1271 l 1
 731 741 l 1
 261 186 l 1
 776 186 l 2
 869.333333333 186 940.666666667 201 990 231 c 0
 1039.33333333 261 1076.33333333 323.666666667 1101 419 c 1
 1139 410 l 1
 1081 0 l 1
 32 0 l 1
 32 36 l 1
 554 652 l 1
 32 1320 l 1
 32 1356 l 1
EndSplineSet
EndChar

StartChar: uniE01A
Encoding: 57370 57370 26
Width: 1366
VWidth: 0
Flags: HW
LayerCount: 2
Back
Fore
SplineSet
1233 1387 m 1
 1264 926 l 1
 1233 926 l 1
 1191.66666667 1064 1132.66666667 1163.33333333 1056 1224 c 0
 979.333333333 1284.66666667 887.333333333 1315 780 1315 c 0
 690 1315 608.666666667 1292.16666667 536 1246.5 c 0
 463.333333333 1200.83333333 406.166666667 1128 364.5 1028 c 0
 322.833333333 928 302 803.666666667 302 655 c 0
 302 532.333333333 321.666666667 426 361 336 c 0
 400.333333333 246 459.5 177 538.5 129 c 0
 617.5 81 707.666666667 57 809 57 c 0
 897 57 974.666666667 75.8333333333 1042 113.5 c 0
 1109.33333333 151.166666667 1183.33333333 226 1264 338 c 1
 1295 318 l 1
 1227 197.333333333 1147.66666667 109 1057 53 c 0
 966.333333333 -3 858.666666667 -31 734 -31 c 0
 509.333333333 -31 335.333333333 52.3333333333 212 219 c 0
 120 343 74 489 74 657 c 0
 74 792.333333333 104.333333333 916.666666667 165 1030 c 0
 225.666666667 1143.33333333 309.166666667 1231.16666667 415.5 1293.5 c 0
 521.833333333 1355.83333333 638 1387 764 1387 c 0
 862 1387 958.666666667 1363 1054 1315 c 0
 1082 1300.33333333 1102 1293 1114 1293 c 0
 1132 1293 1147.66666667 1299.33333333 1161 1312 c 0
 1178.33333333 1330 1190.66666667 1355 1198 1387 c 1
 1233 1387 l 1
EndSplineSet
EndChar

StartChar: uniE01B
Encoding: 57371 57371 27
Width: 1251
VWidth: 0
Flags: HW
LayerCount: 2
Back
Fore
SplineSet
1185 1356 m 1
 1200 1038 l 1
 1162 1038 l 1
 1154.66666667 1094 1144.66666667 1134 1132 1158 c 0
 1111.33333333 1196.66666667 1083.83333333 1225.16666667 1049.5 1243.5 c 0
 1015.16666667 1261.83333333 970 1271 914 1271 c 2
 723 1271 l 1
 723 235 l 2
 723 151.666666667 732 99.6666666667 750 79 c 0
 775.333333333 51 814.333333333 37 867 37 c 2
 914 37 l 1
 914 0 l 1
 339 0 l 1
 339 37 l 1
 387 37 l 2
 444.333333333 37 485 54.3333333333 509 89 c 0
 523.666666667 110.333333333 531 159 531 235 c 2
 531 1271 l 1
 368 1271 l 2
 304.666666667 1271 259.666666667 1266.33333333 233 1257 c 0
 198.333333333 1244.33333333 168.666666667 1220 144 1184 c 0
 119.333333333 1148 104.666666667 1099.33333333 100 1038 c 1
 62 1038 l 1
 78 1356 l 1
 1185 1356 l 1
EndSplineSet
EndChar

StartChar: uniE01C
Encoding: 57372 57372 28
Width: 1479
VWidth: 0
Flags: HW
LayerCount: 2
Back
Fore
SplineSet
976 1356 m 1
 1449 1356 l 1
 1449 1319 l 1
 1423 1319 l 2
 1405.66666667 1319 1380.33333333 1311.33333333 1347 1296 c 0
 1313.66666667 1280.66666667 1283.33333333 1258.66666667 1256 1230 c 0
 1228.66666667 1201.33333333 1195 1154.66666667 1155 1090 c 2
 828 575 l 1
 828 235 l 2
 828 151.666666667 837.333333333 99.6666666667 856 79 c 0
 881.333333333 51 921.333333333 37 976 37 c 2
 1020 37 l 1
 1020 0 l 1
 444 0 l 1
 444 37 l 1
 492 37 l 2
 549.333333333 37 590 54.3333333333 614 89 c 0
 628.666666667 110.333333333 636 159 636 235 c 2
 636 556 l 1
 264 1124 l 2
 220 1190.66666667 190.166666667 1232.33333333 174.5 1249 c 0
 158.833333333 1265.66666667 126.333333333 1285.66666667 77 1309 c 0
 63.6666666667 1315.66666667 44.3333333333 1319 19 1319 c 1
 19 1356 l 1
 599 1356 l 1
 599 1319 l 1
 569 1319 l 2
 537.666666667 1319 508.833333333 1311.66666667 482.5 1297 c 0
 456.166666667 1282.33333333 443 1260.33333333 443 1231 c 0
 443 1207 463.333333333 1163.66666667 504 1101 c 2
 787 664 l 1
 1053 1082 l 2
 1093 1144.66666667 1113 1191.33333333 1113 1222 c 0
 1113 1240.66666667 1108.16666667 1257.33333333 1098.5 1272 c 0
 1088.83333333 1286.66666667 1075 1298.16666667 1057 1306.5 c 0
 1039 1314.83333333 1012 1319 976 1319 c 1
 976 1356 l 1
EndSplineSet
EndChar

StartChar: uniE01D
Encoding: 57373 57373 29
Width: 1450
VWidth: 0
Flags: HW
LayerCount: 2
Back
Fore
SplineSet
26 1356 m 1
 576 1356 l 1
 576 1319 l 1
 479.333333333 1315 431 1289 431 1241 c 0
 431 1207 466.666666667 1127.66666667 538 1003 c 2
 834 483 l 1
 1050 1003 l 2
 1095.33333333 1112.33333333 1118 1185.66666667 1118 1223 c 0
 1118 1275 1076 1307 992 1319 c 1
 992 1356 l 1
 1417 1356 l 1
 1417 1319 l 1
 1317 1307 1241 1239 1189 1115 c 2
 930 499 l 2
 862.666666667 341 808 228.666666667 766 162 c 0
 724 95.3333333333 678.166666667 46.5 628.5 15.5 c 0
 578.833333333 -15.5 527.333333333 -31 474 -31 c 0
 428 -31 389.166666667 -21.1666666667 357.5 -1.5 c 0
 325.833333333 18.1666666667 310 45 310 79 c 0
 310 103.666666667 318.333333333 124.166666667 335 140.5 c 0
 351.666666667 156.833333333 374.333333333 165 403 165 c 0
 431 165 464.333333333 153.666666667 503 131 c 0
 529 117 548.666666667 110 562 110 c 0
 614.666666667 110 673.666666667 164.666666667 739 274 c 1
 247 1139 l 2
 212.333333333 1199.66666667 179.5 1242.66666667 148.5 1268 c 0
 117.5 1293.33333333 76.6666666667 1310.33333333 26 1319 c 1
 26 1356 l 1
EndSplineSet
EndChar

StartChar: uniE01E
Encoding: 57374 57374 30
Width: 1497
VWidth: 0
Flags: HW
LayerCount: 2
Back
Fore
SplineSet
844 191 m 1
 852.666666667 88.3333333333 916.666666667 37 1036 37 c 1
 1036 0 l 1
 460 0 l 1
 460 37 l 1
 579.333333333 37 643.333333333 88.3333333333 652 191 c 1
 476 191 335.166666667 238.333333333 229.5 333 c 0
 123.833333333 427.666666667 71 542.666666667 71 678 c 0
 71 822.666666667 124.666666667 938.166666667 232 1024.5 c 0
 339.333333333 1110.83333333 479.333333333 1157.66666667 652 1165 c 1
 644 1267.66666667 580 1319 460 1319 c 1
 460 1356 l 1
 1036 1356 l 1
 1036 1319 l 1
 916.666666667 1319 852.666666667 1267.66666667 844 1165 c 1
 1034.66666667 1159 1179.16666667 1108.83333333 1277.5 1014.5 c 0
 1375.83333333 920.166666667 1425 808 1425 678 c 0
 1425 542.666666667 1372.33333333 427.666666667 1267 333 c 0
 1161.66666667 238.333333333 1020.66666667 191 844 191 c 1
652 1110 m 1
 538 1103.33333333 448.666666667 1067.83333333 384 1003.5 c 0
 319.333333333 939.166666667 287 825 287 661 c 0
 287 398.333333333 408.666666667 260 652 246 c 1
 652 1110 l 1
844 1110 m 1
 844 246 l 1
 954 250.666666667 1042.5 284.666666667 1109.5 348 c 0
 1176.5 411.333333333 1210 526.666666667 1210 694 c 0
 1210 957.333333333 1088 1096 844 1110 c 1
EndSplineSet
EndChar

StartChar: uniE01F
Encoding: 57375 57375 31
Width: 1479
VWidth: 0
Flags: HW
LayerCount: 2
Back
Fore
SplineSet
937 454 m 1
 412 454 l 1
 320 240 l 2
 297.333333333 187.333333333 286 148 286 122 c 0
 286 101.333333333 295.833333333 83.1666666667 315.5 67.5 c 0
 335.166666667 51.8333333333 377.666666667 41.6666666667 443 37 c 1
 443 0 l 1
 16 0 l 1
 16 37 l 1
 72.6666666667 47 109.333333333 60 126 76 c 0
 160 108 197.666666667 173 239 271 c 2
 716 1387 l 1
 751 1387 l 1
 1223 259 l 2
 1261 168.333333333 1295.5 109.5 1326.5 82.5 c 0
 1357.5 55.5 1400.66666667 40.3333333333 1456 37 c 1
 1456 0 l 1
 921 0 l 1
 921 37 l 1
 975 39.6666666667 1011.5 48.6666666667 1030.5 64 c 0
 1049.5 79.3333333333 1059 98 1059 120 c 0
 1059 149.333333333 1045.66666667 195.666666667 1019 259 c 2
 937 454 l 1
909 528 m 1
 679 1076 l 1
 443 528 l 1
 909 528 l 1
959 1797 m 1
 664 1452 l 1
 630 1452 l 1
 735 1797 l 1
 959 1797 l 1
EndSplineSet
EndChar

StartChar: uniE020
Encoding: 57376 57376 32
Width: 1821
VWidth: 0
Flags: HW
LayerCount: 2
Back
Fore
SplineSet
1027 1282 m 1
 1027 746 l 1
 1284 746 l 2
 1360.66666667 746 1414.66666667 760.333333333 1446 789 c 0
 1477.33333333 817.666666667 1495.66666667 869 1501 943 c 1
 1537 943 l 1
 1537 472 l 1
 1501 472 l 1
 1493 538.666666667 1482.16666667 583.5 1468.5 606.5 c 0
 1454.83333333 629.5 1432 648 1400 662 c 0
 1384.66666667 669.333333333 1346 673 1284 673 c 2
 1027 673 l 1
 1027 224 l 2
 1027 163.333333333 1029.33333333 127.166666667 1034 115.5 c 0
 1038.66666667 103.833333333 1048.33333333 94 1063 86 c 0
 1077.66666667 78 1104 74 1142 74 c 2
 1324 74 l 2
 1396.66666667 74 1452.66666667 80 1492 92 c 0
 1531.33333333 104 1569.33333333 127.333333333 1606 162 c 0
 1654.66666667 207.333333333 1694.66666667 267 1726 341 c 1
 1764 341 l 1
 1656 0 l 1
 638 0 l 1
 638 37 l 1
 689 37 l 2
 744.333333333 37 785 53.3333333333 811 86 c 0
 827 107.333333333 835 158.333333333 835 239 c 2
 835 525 l 1
 439 525 l 1
 315 292 l 2
 268.333333333 204 245 146.333333333 245 119 c 0
 245 100.333333333 255.166666667 83.1666666667 275.5 67.5 c 0
 295.833333333 51.8333333333 338 41.6666666667 402 37 c 1
 402 0 l 1
 -24 0 l 1
 -24 37 l 1
 5.33333333333 37.6666666667 30.5 44 51.5 56 c 0
 72.5 68 95.3333333333 89.6666666667 120 121 c 0
 144.666666667 152.333333333 176 203.333333333 214 274 c 2
 626 1045 l 2
 677.333333333 1140.33333333 703 1204.66666667 703 1238 c 0
 703 1259.33333333 694 1276 676 1288 c 0
 653.333333333 1304.66666667 604.666666667 1315 530 1319 c 1
 530 1356 l 1
 1641 1356 l 1
 1656 1058 l 1
 1622 1058 l 1
 1613.33333333 1126.66666667 1596.66666667 1179 1572 1215 c 0
 1554 1241 1528 1260 1494 1272 c 0
 1474.66666667 1278.66666667 1429.33333333 1282 1358 1282 c 2
 1027 1282 l 1
835 1282 m 1
 478 598 l 1
 835 598 l 1
 835 1282 l 1
1135 1836 m 1
 840 1491 l 1
 806 1491 l 1
 911 1836 l 1
 1135 1836 l 1
EndSplineSet
EndChar

StartChar: uniE021
Encoding: 57377 57377 33
Width: 1352
VWidth: 0
Flags: HW
LayerCount: 2
Back
Fore
SplineSet
753 1797 m 1
 977 1797 l 1
 682 1452 l 1
 648 1452 l 1
 753 1797 l 1
757.6875 1390.5 m 0
 844.56640625 1390.49902344 941.475585938 1371.10449219 1048.40625 1332.34375 c 0
 1076.47363281 1322.31738281 1095.50585938 1317.31152344 1105.53125 1317.3125 c 0
 1129.58886719 1317.31152344 1154.98535156 1341.04882812 1181.71875 1388.5 c 1
 1215.8125 1388.5 l 1
 1238.875 933.375 l 1
 1201.78125 933.375 l 1
 1183.73535156 1050.328125 1128.93261719 1144.0546875 1037.375 1214.5625 c 0
 945.815429688 1285.06738281 852.254882812 1320.31152344 756.6875 1320.3125 c 0
 647.752929688 1320.31152344 548.822265625 1273.69628906 459.9375 1180.46875 c 0
 371.051757812 1087.23828125 319.596679688 938.376953125 305.5625 733.875 c 1
 834.875 733.875 l 1
 834.875 659.6875 l 1
 305.5625 659.6875 l 1
 305.5625 531.372070312 328.967773438 420.106445312 375.75 325.875 c 0
 422.53125 231.643554688 480.3203125 161.48828125 549.15625 115.375 c 0
 617.991210938 69.26171875 700.211914062 46.1875 795.78125 46.1875 c 0
 984.243164062 46.1875 1141.62597656 132.056640625 1267.9375 303.8125 c 1
 1295 282.78125 l 1
 1166.015625 73.6005859375 986.584960938 -31 756.6875 -31 c 0
 556.194335938 -31 392.28125 37.3310546875 264.96875 174 c 0
 137.65625 310.668945312 74 477.9296875 74 675.75 c 0
 74 819.435546875 108.08203125 944.891601562 176.25 1052.15625 c 0
 244.416992188 1159.41894531 327.135742188 1242.63476562 424.375 1301.78125 c 0
 521.61328125 1360.92480469 632.712890625 1390.49902344 757.6875 1390.5 c 0
EndSplineSet
EndChar

StartChar: uniE022
Encoding: 57378 57378 34
Width: 682
VWidth: 0
Flags: HW
LayerCount: 2
Back
Fore
SplineSet
632 37 m 1
 632 0 l 1
 51 0 l 1
 51 37 l 1
 99 37 l 2
 155 37 195.666666667 53.3333333333 221 86 c 0
 237 107.333333333 245 158.666666667 245 240 c 2
 245 1116 l 2
 245 1184.66666667 240.666666667 1230 232 1252 c 0
 225.333333333 1268.66666667 211.666666667 1283 191 1295 c 0
 161.666666667 1311 131 1319 99 1319 c 2
 51 1319 l 1
 51 1356 l 1
 632 1356 l 1
 632 1319 l 1
 583 1319 l 2
 527.666666667 1319 487.333333333 1302.66666667 462 1270 c 0
 445.333333333 1248.66666667 437 1197.33333333 437 1116 c 2
 437 240 l 2
 437 171.333333333 441.333333333 126 450 104 c 0
 456.666666667 87.3333333333 470.666666667 73 492 61 c 0
 520.666666667 45 551 37 583 37 c 2
 632 37 l 1
565 1797 m 1
 270 1452 l 1
 236 1452 l 1
 341 1797 l 1
 565 1797 l 1
EndSplineSet
EndChar

StartChar: uniE023
Encoding: 57379 57379 35
Width: 1479
VWidth: 0
Flags: HW
LayerCount: 2
Back
Fore
SplineSet
976 1356 m 1
 1449 1356 l 1
 1449 1319 l 1
 1423 1319 l 2
 1405.66666667 1319 1380.33333333 1311.33333333 1347 1296 c 0
 1313.66666667 1280.66666667 1283.33333333 1258.66666667 1256 1230 c 0
 1228.66666667 1201.33333333 1195 1154.66666667 1155 1090 c 2
 828 575 l 1
 828 235 l 2
 828 151.666666667 837.333333333 99.6666666667 856 79 c 0
 881.333333333 51 921.333333333 37 976 37 c 2
 1020 37 l 1
 1020 0 l 1
 444 0 l 1
 444 37 l 1
 492 37 l 2
 549.333333333 37 590 54.3333333333 614 89 c 0
 628.666666667 110.333333333 636 159 636 235 c 2
 636 556 l 1
 264 1124 l 2
 220 1190.66666667 190.166666667 1232.33333333 174.5 1249 c 0
 158.833333333 1265.66666667 126.333333333 1285.66666667 77 1309 c 0
 63.6666666667 1315.66666667 44.3333333333 1319 19 1319 c 1
 19 1356 l 1
 599 1356 l 1
 599 1319 l 1
 569 1319 l 2
 537.666666667 1319 508.833333333 1311.66666667 482.5 1297 c 0
 456.166666667 1282.33333333 443 1260.33333333 443 1231 c 0
 443 1207 463.333333333 1163.66666667 504 1101 c 2
 787 664 l 1
 1053 1082 l 2
 1093 1144.66666667 1113 1191.33333333 1113 1222 c 0
 1113 1240.66666667 1108.16666667 1257.33333333 1098.5 1272 c 0
 1088.83333333 1286.66666667 1075 1298.16666667 1057 1306.5 c 0
 1039 1314.83333333 1012 1319 976 1319 c 1
 976 1356 l 1
996 1797 m 1
 701 1452 l 1
 667 1452 l 1
 772 1797 l 1
 996 1797 l 1
EndSplineSet
EndChar

StartChar: uniE024
Encoding: 57380 57380 36
Width: 682
VWidth: 0
Flags: HW
LayerCount: 2
Back
Fore
SplineSet
632 37 m 1
 632 0 l 1
 51 0 l 1
 51 37 l 1
 99 37 l 2
 155 37 195.666666667 53.3333333333 221 86 c 0
 237 107.333333333 245 158.666666667 245 240 c 2
 245 1116 l 2
 245 1184.66666667 240.666666667 1230 232 1252 c 0
 225.333333333 1268.66666667 211.666666667 1283 191 1295 c 0
 161.666666667 1311 131 1319 99 1319 c 2
 51 1319 l 1
 51 1356 l 1
 632 1356 l 1
 632 1319 l 1
 583 1319 l 2
 527.666666667 1319 487.333333333 1302.66666667 462 1270 c 0
 445.333333333 1248.66666667 437 1197.33333333 437 1116 c 2
 437 240 l 2
 437 171.333333333 441.333333333 126 450 104 c 0
 456.666666667 87.3333333333 470.666666667 73 492 61 c 0
 520.666666667 45 551 37 583 37 c 2
 632 37 l 1
517 1708 m 0
 547 1708 572.5 1697.33333333 593.5 1676 c 0
 614.5 1654.66666667 625 1629 625 1599 c 0
 625 1569 614.5 1543.5 593.5 1522.5 c 0
 572.5 1501.5 547 1491 517 1491 c 0
 487 1491 461.333333333 1501.5 440 1522.5 c 0
 418.666666667 1543.5 408 1569 408 1599 c 0
 408 1629 418.666666667 1654.66666667 440 1676 c 0
 461.333333333 1697.33333333 487 1708 517 1708 c 0
164 1708 m 0
 194.666666667 1708 220.5 1697.33333333 241.5 1676 c 0
 262.5 1654.66666667 273 1629 273 1599 c 0
 273 1569 262.333333333 1543.5 241 1522.5 c 0
 219.666666667 1501.5 194.333333333 1491 165 1491 c 0
 135 1491 109.333333333 1501.5 88 1522.5 c 0
 66.6666666667 1543.5 56 1569 56 1599 c 0
 56 1629 66.5 1654.66666667 87.5 1676 c 0
 108.5 1697.33333333 134 1708 164 1708 c 0
EndSplineSet
EndChar

StartChar: uniE025
Encoding: 57381 57381 37
Width: 1479
VWidth: 0
Flags: HW
LayerCount: 2
Back
Fore
SplineSet
976 1356 m 1
 1449 1356 l 1
 1449 1319 l 1
 1423 1319 l 2
 1405.66666667 1319 1380.33333333 1311.33333333 1347 1296 c 0
 1313.66666667 1280.66666667 1283.33333333 1258.66666667 1256 1230 c 0
 1228.66666667 1201.33333333 1195 1154.66666667 1155 1090 c 2
 828 575 l 1
 828 235 l 2
 828 151.666666667 837.333333333 99.6666666667 856 79 c 0
 881.333333333 51 921.333333333 37 976 37 c 2
 1020 37 l 1
 1020 0 l 1
 444 0 l 1
 444 37 l 1
 492 37 l 2
 549.333333333 37 590 54.3333333333 614 89 c 0
 628.666666667 110.333333333 636 159 636 235 c 2
 636 556 l 1
 264 1124 l 2
 220 1190.66666667 190.166666667 1232.33333333 174.5 1249 c 0
 158.833333333 1265.66666667 126.333333333 1285.66666667 77 1309 c 0
 63.6666666667 1315.66666667 44.3333333333 1319 19 1319 c 1
 19 1356 l 1
 599 1356 l 1
 599 1319 l 1
 569 1319 l 2
 537.666666667 1319 508.833333333 1311.66666667 482.5 1297 c 0
 456.166666667 1282.33333333 443 1260.33333333 443 1231 c 0
 443 1207 463.333333333 1163.66666667 504 1101 c 2
 787 664 l 1
 1053 1082 l 2
 1093 1144.66666667 1113 1191.33333333 1113 1222 c 0
 1113 1240.66666667 1108.16666667 1257.33333333 1098.5 1272 c 0
 1088.83333333 1286.66666667 1075 1298.16666667 1057 1306.5 c 0
 1039 1314.83333333 1012 1319 976 1319 c 1
 976 1356 l 1
936 1708 m 0
 966 1708 991.5 1697.33333333 1012.5 1676 c 0
 1033.5 1654.66666667 1044 1629 1044 1599 c 0
 1044 1569 1033.5 1543.5 1012.5 1522.5 c 0
 991.5 1501.5 966 1491 936 1491 c 0
 906 1491 880.333333333 1501.5 859 1522.5 c 0
 837.666666667 1543.5 827 1569 827 1599 c 0
 827 1629 837.666666667 1654.66666667 859 1676 c 0
 880.333333333 1697.33333333 906 1708 936 1708 c 0
583 1708 m 0
 613.666666667 1708 639.5 1697.33333333 660.5 1676 c 0
 681.5 1654.66666667 692 1629 692 1599 c 0
 692 1569 681.333333333 1543.5 660 1522.5 c 0
 638.666666667 1501.5 613.333333333 1491 584 1491 c 0
 554 1491 528.333333333 1501.5 507 1522.5 c 0
 485.666666667 1543.5 475 1569 475 1599 c 0
 475 1629 485.5 1654.66666667 506.5 1676 c 0
 527.5 1697.33333333 553 1708 583 1708 c 0
EndSplineSet
EndChar

StartChar: uniE026
Encoding: 57382 57382 38
Width: 1071
VWidth: 0
Flags: HW
LayerCount: 2
Back
Fore
SplineSet
877 943 m 1
 877 795 l 1
 877 262.938476562 l 2
 878.157552083 213.777018229 880.334635417 181.631184896 883.53125 166.500976562 c 0
 888.530598958 142.833658854 896.530598958 126.333658854 907.53125 117.000976562 c 0
 918.529947917 107.666341146 931.36328125 102.999674479 946.03125 103.000976562 c 0
 963.9765625 103.000976562 987.9765625 108.677734375 1018.03125 120.03125 c 1
 1029 85.0009765625 l 1
 757 -27.9990234375 l 1
 711 -27.9990234375 l 1
 711 90.0625 l 1
 630.008463542 11.357421875 540.341796875 -27.9964192708 442 -27.9990234375 c 0
 328.666666667 -27.9990234375 236.333333333 19.6676432292 165 115.000976562 c 0
 100.333333333 201.667643229 68 303.334309896 68 420.000976562 c 0
 68 554.000976562 107.666666667 672.667643229 187 776.000976562 c 0
 273 888.000976562 381 944.000976562 511 944.000976562 c 0
 583.666666667 944.000976562 645.333333333 925.334309896 696 888.000976562 c 1
 833 943.000976562 l 1
 877 943 l 1
499 882 m 0
 414.333333333 882 349.333333333 836.666666667 304 746 c 0
 268.667317708 674.666666667 251.000651042 592.333333333 251 499 c 0
 251 396.333333333 272.333333333 305.666666667 315 227 c 0
 367 130.333333333 440.333333333 82 535 82 c 0
 597.667317708 82 656.333984375 109.333333333 711 164 c 1
 711 560 l 2
 711 774.666666667 640.333333333 882 499 882 c 0
EndSplineSet
EndChar

StartChar: uniE027
Encoding: 57383 57383 39
Width: 1479
VWidth: 0
Flags: HW
LayerCount: 2
Back
Fore
SplineSet
490 943 m 1
 561.333333333 943 623.333333333 928.333333333 676 899 c 0
 730.822265625 868.465494792 774.270182292 828.569335938 806.34375 779.311523438 c 1
 813.591145833 789.346028646 821.143229167 798.908528646 829 807.999023438 c 0
 906.781901042 897.999023438 1000.15690104 942.999023438 1109.125 942.999023438 c 0
 1190.84179688 942.999023438 1258.02929688 919.165690104 1310.6875 871.499023438 c 0
 1363.34960938 823.832356771 1389.68294271 774.332356771 1389.6875 722.999023438 c 0
 1389.6875 697.666341146 1382.27083333 677.166341146 1367.4375 661.499023438 c 0
 1352.60742188 645.832356771 1331.87825521 637.999023438 1305.25 637.999023438 c 0
 1269.53710938 637.999023438 1242.59960938 650.665690104 1224.4375 675.999023438 c 0
 1214.140625 690.008138021 1207.328125 716.674804688 1204 755.999023438 c 0
 1200.67057292 795.332356771 1188.41015625 825.332356771 1167.21875 845.999023438 c 0
 1146.03320312 865.999023438 1116.67903646 875.999023438 1079.15625 875.999023438 c 0
 1018.625 875.999023438 969.895507812 851.332356771 932.967773438 801.999023438 c 0
 883.937825521 736.666341146 859.427408854 650.333007812 859.436523438 542.999023438 c 0
 859.436523438 535.454752604 859.561523438 527.788085938 859.811523438 519.999023438 c 1
 1159.06152344 519.999023438 l 1
 1159.06152344 454.999023438 l 1
 865.061523438 454.999023438 l 1
 874.827148438 381.127278646 897.316731771 313.960611979 932.530273438 253.499023438 c 0
 981.258138021 169.832356771 1047.08138021 127.999023438 1130 127.999023438 c 0
 1189.328125 127.999023438 1242.59863281 150.332356771 1289.81152344 194.999023438 c 0
 1323.10904948 225.671549479 1355.49446615 281.338216146 1386.96777344 361.999023438 c 1
 1413.28027344 347.999023438 l 1
 1390.88378906 227.332356771 1346.9983724 134.499023438 1281.62402344 69.4990234375 c 0
 1216.25097656 4.4990234375 1143.91764323 -28.0009765625 1064.62402344 -28.0009765625 c 0
 970.196289062 -28.0009765625 887.873372396 15.6656901042 817.655273438 102.999023438 c 0
 811.116210938 111.131835938 804.793294271 119.725585938 798.686523438 128.780273438 c 1
 758.146809896 77.5387369792 712.083984375 38.7786458333 660.498046875 12.5 c 0
 607.498046875 -14.5 548.664713542 -28 483.998046875 -28 c 0
 366.664713542 -28 267.831380208 14.8333333333 187.498046875 100.5 c 0
 107.164713542 186.166666667 66.998046875 300.333333333 66.998046875 443 c 0
 66.998046875 595.666666667 108.164713542 717.166666667 190.498046875 807.5 c 0
 272.831380208 897.833333333 372.664713542 943 489.998046875 943 c 1
 490 943 l 1
453 888 m 0
 429 888 400.5 879.166666667 367.5 861.5 c 0
 334.5 843.832682292 309 813.666015625 291 771 c 0
 266.332682292 715.667317708 253.999348958 638.333984375 254 539 c 0
 254 367 288 231.666666667 356 133 c 0
 397.332682292 73 448.332682292 43 509 43 c 0
 568.332682292 43 617.499348958 67.6666666667 656.5 117 c 0
 695.5 166.332682292 715 253.332682292 715 378 c 0
 715 533.333333333 692.5 657.166666667 647.5 749.5 c 0
 602.5 841.833333333 537.666666667 888 453 888 c 0
EndSplineSet
EndChar

StartChar: uniE028
Encoding: 57384 57384 40
Width: 1042
VWidth: 0
Flags: HW
LayerCount: 2
Back
Fore
SplineSet
266.935546875 1431.95117188 m 1
 311.934570312 1431.95117188 l 1
 311.934570312 1378.01074219 l 1
 367.921875 1412.8203125 436.0390625 1429.9765625 516.48828125 1429.97753906 c 0
 621.764648438 1429.97558594 710.495117188 1402.52441406 782.124023438 1346.88964844 c 0
 853.751953125 1291.25097656 889.596679688 1211.85058594 889.59765625 1109.24023438 c 0
 889.59765625 1038.953125 869.620117188 976.295898438 830.490234375 920.884765625 c 1
 827.877929688 920.884765625 l 1
 800.676757812 887.62109375 756.95703125 857.819335938 696.366210938 831.584960938 c 1
 786.31640625 804.931640625 854.305664062 758.547851562 900.28125 692.583007812 c 0
 921.728515625 661.811523438 937.697265625 626.1484375 948.473632812 586.38671875 c 0
 964.955078125 541.32421875 973.555664062 491.821289062 973.556640625 437.573242188 c 0
 973.555664062 344.290039062 951.00390625 261.123046875 906.029296875 187.498046875 c 0
 861.052734375 113.870117188 809.099609375 61.1162109375 750.131835938 29.7998046875 c 0
 691.163085938 -1.5166015625 620.623046875 -17.2890625 538.66796875 -17.2890625 c 0
 445.986328125 -17.2890625 370.413085938 17.634765625 311.934570312 86.701171875 c 1
 311.934570312 -219.171875 l 2
 311.934570312 -276.474609375 316.087890625 -314.434570312 324.41796875 -333.090820312 c 0
 332.74609375 -351.747070312 345.530273438 -365.931640625 362.854492188 -375.592773438 c 0
 380.178710938 -385.25390625 412.510742188 -390.049804688 459.819335938 -390.049804688 c 1
 459.819335938 -426.048828125 l 1
 11.0546875 -426.048828125 l 1
 11.0546875 -390.049804688 l 1
 53.0322265625 -390.049804688 81.7197265625 -385.764648438 97.044921875 -377.102539062 c 0
 112.370117188 -368.440429688 124.323242188 -354.067382812 132.985351562 -334.078125 c 0
 141.647460938 -314.088867188 145.991210938 -275.80859375 145.991210938 -219.171875 c 2
 145.991210938 -121.220703125 l 2
 145.991210938 268.901367188 145.991210938 659.0234375 145.991210938 1049.14550781 c 0
 145.991210938 1152.421875 143.6875 1215.87695312 139.024414062 1239.53222656 c 0
 134.359375 1263.18457031 126.823242188 1279.35058594 116.49609375 1288.01464844 c 0
 106.16796875 1296.67480469 93.0048828125 1301.01953125 77.013671875 1301.02050781 c 0
 59.689453125 1301.01855469 37.7060546875 1295.71289062 11.0546875 1285.05273438 c 1
 -5.900390625 1320.00683594 l 1
 266.935546875 1431.95117188 l 1
520.436523438 1361.11523438 m 0
 473.127929688 1361.11328125 432.850585938 1347.76074219 399.202148438 1321.11035156 c 0
 365.552734375 1294.45605469 342.53515625 1262.57617188 329.875 1225.59667969 c 0
 320.293945312 1197.609375 314.294921875 1156.24902344 311.934570312 1101.40136719 c 2
 311.934570312 175.884765625 l 1
 363.822265625 91.185546875 435.84765625 48.90234375 528.44921875 48.90234375 c 0
 618.400390625 48.90234375 684.580078125 81.9189453125 726.55859375 147.55078125 c 0
 768.53515625 213.180664062 789.671875 292.5859375 789.672851562 386.536132812 c 0
 789.671875 458.49609375 783.3828125 535.807617188 735.03515625 634.404296875 c 0
 684.260742188 737.94921875 603.08203125 777.83203125 504.469726562 784.49609375 c 1
 504.469726562 841.397460938 l 1
 575.09765625 841.396484375 628.5234375 862.344726562 664.837890625 903.989257812 c 0
 701.151367188 945.631835938 719.026367188 1015.08984375 718.139648438 1133.91601562 c 1
 709.857421875 1215.91015625 692.572265625 1260.5703125 664.837890625 1294.05273438 c 0
 627.857421875 1338.69335938 579.737304688 1361.11425781 520.436523438 1361.11523438 c 0
EndSplineSet
EndChar

StartChar: uniE029
Encoding: 57385 57385 41
Width: 1042
VWidth: 0
Flags: HW
LayerCount: 2
Back
Fore
SplineSet
150 654 m 1
 226.666666667 846.666666667 356 943 538 943 c 0
 665.333333333 943 769.5 895.333333333 850.5 800 c 0
 931.5 704.666666667 972 595.666666667 972 473 c 0
 972 346.333333333 931 231.166666667 849 127.5 c 0
 767 23.8333333333 656 -28 516 -28 c 0
 373.333333333 -28 264.666666667 31.1666666667 190 149.5 c 0
 115.333333333 267.833333333 78 412 78 582 c 0
 78 714 97.3333333333 837.166666667 136 951.5 c 0
 174.666666667 1065.83333333 215.333333333 1151.33333333 258 1208 c 0
 300.666666667 1264.66666667 350 1306 406 1332 c 0
 462 1358 561 1371.66666667 703 1373 c 0
 805 1374.33333333 866.666666667 1377.33333333 888 1382 c 0
 909.333333333 1386.66666667 929.666666667 1400 949 1422 c 1
 988 1422 l 1
 966 1356.66666667 939.333333333 1310 908 1282 c 0
 876.666666667 1254 843 1235.16666667 807 1225.5 c 0
 771 1215.83333333 706.666666667 1209.66666667 614 1207 c 0
 514 1204.33333333 444.833333333 1196.83333333 406.5 1184.5 c 0
 368.166666667 1172.16666667 328.333333333 1142.16666667 287 1094.5 c 0
 245.666666667 1046.83333333 213.5 984.333333333 190.5 907 c 0
 167.5 829.666666667 154 745.333333333 150 654 c 1
504 875 m 0
 437.333333333 875 382.666666667 847.333333333 340 792 c 0
 297.333333333 736.666666667 276 649.666666667 276 531 c 0
 276 370.333333333 304.666666667 248.666666667 362 166 c 0
 419.333333333 83.3333333333 485.666666667 42 561 42 c 0
 630.333333333 42 684.833333333 70.8333333333 724.5 128.5 c 0
 764.166666667 186.166666667 784 278.333333333 784 405 c 0
 784 539.666666667 758 651.666666667 706 741 c 0
 654 830.333333333 586.666666667 875 504 875 c 0
EndSplineSet
EndChar

StartChar: uniE02A
Encoding: 57386 57386 42
Width: 1042
VWidth: 0
Flags: HW
LayerCount: 2
Back
Fore
SplineSet
1023 878 m 1
 983.666666667 878 954.666666667 870.333333333 936 855 c 0
 906.666666667 831 879 787 853 723 c 2
 597 108 l 1
 597 -194 l 2
 597 -270 600.666666667 -317.666666667 608 -337 c 0
 613.333333333 -351.666666667 624.666666667 -364.333333333 642 -375 c 0
 666 -389.666666667 694.333333333 -397 727 -397 c 2
 768 -397 l 1
 768 -438 l 1
 253 -438 l 1
 253 -397 l 1
 285 -397 l 2
 363.666666667 -397 409.333333333 -369.333333333 422 -314 c 0
 424.666666667 -302 426 -262 426 -194 c 2
 426 89 l 1
 163 734 l 2
 143.666666667 783.333333333 125 817.333333333 107 836 c 0
 81 863.333333333 46 877.333333333 2 878 c 1
 2 916 l 1
 444 916 l 1
 444 878 l 1
 363.333333333 872.666666667 323 852 323 816 c 0
 323 806 328 786.333333333 338 757 c 2
 555 197 l 1
 771 742 l 2
 783 775.333333333 789 800.333333333 789 817 c 0
 789 831 782 844.666666667 768 858 c 0
 758.666666667 867.333333333 737.333333333 873 704 875 c 0
 699.333333333 875.666666667 690.333333333 876.666666667 677 878 c 1
 677 916 l 1
 1023 916 l 1
 1023 878 l 1
EndSplineSet
EndChar

StartChar: uniE02B
Encoding: 57387 57387 43
Width: 797
VWidth: 0
Flags: HW
LayerCount: 2
Back
Fore
SplineSet
697 678 m 0
 697 609.333333333 673.333333333 552.333333333 626 507 c 0
 596 477.666666667 541.333333333 443.333333333 462 404 c 0
 382.666666667 364.666666667 330.333333333 335.333333333 305 316 c 0
 248.333333333 272.666666667 220 223.666666667 220 169 c 0
 220 128.333333333 236 94.6666666667 268 68 c 0
 298 43.3333333333 334 31 376 31 c 0
 452.666666667 31 516.666666667 59.6666666667 568 117 c 0
 613.333333333 167.666666667 644 233 660 313 c 1
 693 313 l 1
 693 -14 l 1
 660 -14 l 1
 651.333333333 3.33333333333 639.333333333 12 624 12 c 0
 611.333333333 12 593.333333333 8.66666666667 570 2 c 0
 499.333333333 -18 435.333333333 -28 378 -28 c 0
 296.666666667 -28 226 -2.33333333333 166 49 c 0
 103.333333333 103 72 170 72 250 c 0
 72 358 139.666666667 445 275 511 c 2
 421 582 l 2
 526.333333333 633.333333333 579 694.333333333 579 765 c 0
 579 801.666666667 561.333333333 831.333333333 526 854 c 0
 496 874 461.666666667 884 423 884 c 0
 349.666666667 884 292.666666667 859 252 809 c 0
 220.666666667 771.666666667 194.666666667 712.333333333 174 631 c 1
 141 631 l 1
 141 943 l 1
 174 943 l 1
 186.666666667 917.666666667 202 905 220 905 c 0
 231.333333333 905 254 910 288 920 c 0
 339.333333333 935.333333333 383 943 419 943 c 0
 498.333333333 943 564.333333333 919 617 871 c 0
 670.333333333 821 697 756.666666667 697 678 c 0
EndSplineSet
EndChar

StartChar: uniE02C
Encoding: 57388 57388 44
Width: 1024
VWidth: 0
Flags: HW
LayerCount: 2
Back
Fore
SplineSet
277.022460938 1286.06445312 m 1
 789.508789062 848.192382812 l 2
 810.079101562 830.615234375 829.329101562 809.678710938 847.638671875 786.71875 c 0
 919.1328125 696.516601562 954.990234375 593.173828125 954.990234375 476.244140625 c 0
 954.989257812 394.05859375 935.166992188 310.5390625 895.747070312 226.350585938 c 0
 856.32421875 142.159179688 802.313476562 78.9072265625 733.158203125 36.1435546875 c 0
 664.002929688 -6.6181640625 586.829101562 -28 501.97265625 -28 c 0
 363.661132812 -28 253.857421875 27.01171875 172.34375 137.260742188 c 0
 103.520507812 230.134765625 69 334.369140625 69 449.961914062 c 0
 69 534.151367188 90.046875 618.006835938 131.806640625 701.193359375 c 0
 173.567382812 784.381835938 228.469726562 845.852539062 296.622070312 885.609375 c 0
 356.255859375 920.39453125 418.828125 940.059570312 484.599609375 944.408203125 c 1
 75.234375 1290.51855469 l 1
 75.234375 1356 l 1
 819.575195312 1356 l 1
 825.365234375 1101.64941406 l 1
 785.276367188 1101.64941406 l 1
 782.600585938 1151.09375 772.135742188 1192.51757812 754.09375 1225.9296875 c 0
 741.401367188 1249.31152344 725.137695312 1265.23925781 705.096679688 1273.59179688 c 0
 685.047851562 1281.94335938 642.51171875 1286.06445312 577.697265625 1286.06445312 c 2
 277.022460938 1286.06445312 l 1
481.927734375 879.818359375 m 0
 446.512695312 879.818359375 410.767578125 869.237304688 375.020507812 848.192382812 c 0
 339.272460938 827.14453125 310.654296875 790.504882812 288.603515625 737.721679688 c 0
 266.553710938 684.935546875 255.194335938 617.004882812 255.194335938 534.15234375 c 0
 255.194335938 400.518554688 281.810546875 285.37109375 334.930664062 188.486328125 c 0
 388.048828125 91.6015625 458.319335938 43.271484375 545.180664062 43.271484375 c 0
 609.993164062 43.271484375 663.446289062 69.998046875 705.541015625 123.451171875 c 0
 747.634765625 176.905273438 768.34765625 268.444335938 768.34765625 398.736328125 c 0
 768.34765625 561.76953125 733.380859375 690.05859375 663.22265625 783.6015625 c 0
 615.783203125 847.74609375 555.424804688 879.818359375 481.927734375 879.818359375 c 0
EndSplineSet
EndChar

StartChar: uniE02D
Encoding: 57389 57389 45
Width: 1024
VWidth: 0
Flags: HW
LayerCount: 2
Back
Fore
SplineSet
852 857.5 m 0
 916.666992188 725.166992188 949 597.333007812 949 474 c 0
 949 381.333007812 929.833007812 296.166992188 891.5 218.5 c 0
 853.166992188 140.833007812 799.333007812 80.3330078125 730 37 c 0
 660.666992188 -6.3330078125 583.666992188 -28 499 -28 c 0
 379.666992188 -28 278 16.5 194 105.5 c 0
 110 194.5 68 306.333007812 68 441 c 0
 68 581.666992188 114 703.333007812 206 806 c 0
 284.666992188 892 378.666992188 935 488 935 c 0
 520.666992188 935 550 930.666992188 576 922 c 0
 596.666992188 915.333007812 623.666992188 900 657 876 c 1
 603.666992188 986 543.205078125 1085.56640625 447 1195 c 0
 383.157226562 1267.62109375 347.833007812 1297.16699219 325.5 1315.5 c 0
 303.166992188 1333.83300781 273.666992188 1355 237 1379 c 1
 264 1422 l 1
 344 1382 429.208984375 1333.93066406 538 1244 c 0
 694.640625 1114.515625 787.333007812 989.833007812 852 857.5 c 0
479 874 m 0
 415 874 361.333007812 847 318 793 c 0
 274.666992188 739 253 647.333007812 253 518 c 0
 253 427.333007812 266.5 343.833007812 293.5 267.5 c 0
 320.5 191.166992188 357 134.5 403 97.5 c 0
 449 60.5 497 42 547 42 c 0
 607.666992188 42 659 68.3330078125 701 121 c 0
 743 173.666992188 764 259 764 377 c 0
 764 527 737.666992188 647.333007812 685 738 c 0
 632.333007812 828.666992188 563.666992188 874 479 874 c 0
EndSplineSet
EndChar

StartChar: uniE02E
Encoding: 57390 57390 46
Width: 860
VWidth: 0
Flags: HW
LayerCount: 2
Back
Fore
SplineSet
612 778 m 0
 578.666992188 850 528.658203125 886.654296875 459.6796875 885.484375 c 0
 410.650390625 884.653320312 370.5 868.666015625 337.5 838 c 0
 304.5 807.33203125 288 768.333007812 288 721 c 0
 288 657.666015625 311 607.333007812 357 570 c 0
 399.666015625 535.333007812 453.333007812 517.999023438 518 518 c 1
 518 460 l 1
 346.666015625 451.999023438 261 381.666015625 261 249 c 0
 261 190.333007812 278.5 141.5 313.5 102.5 c 0
 348.5 63.5 395 44 453 44 c 0
 550.999023438 44 654.666015625 86.3330078125 764 171 c 1
 790 145 l 1
 669.999023438 29.6669921875 544.999023438 -28 415 -28 c 0
 324.333007812 -28 247 -7 183 35 c 0
 108.333007812 83.6669921875 71 151.333007812 71 238 c 0
 71 371.333007812 162.333007812 456.999023438 345 495 c 1
 188.333007812 541.666015625 110 616.666015625 110 720 c 0
 110 793.999023438 144.666992188 851.33203125 214 892 c 0
 271.333007812 925.999023438 340.1484375 941.345703125 419.984375 943.5 c 0
 441.020507812 944.067382812 461.694335938 943 483 943 c 0
 551.666992188 943 614.333007812 933 671 913 c 0
 750.333007812 884.333007812 790 841.666992188 790 785 c 0
 790 762.333007812 781.333007812 742.5 764 725.5 c 0
 746.666992188 708.5 726.666992188 700 704 700 c 0
 666.666992188 700 636 726 612 778 c 0
EndSplineSet
EndChar

StartChar: uniE02F
Encoding: 57391 57391 47
Width: 879
VWidth: 0
Flags: HW
LayerCount: 2
Back
Fore
SplineSet
507 943 m 0
 597 943 671 919.166666667 729 871.5 c 0
 787 823.832682292 816 774.332682292 816 723 c 0
 816 697.667317708 807.833333333 677.167317708 791.5 661.5 c 0
 775.167317708 645.832682292 752.333984375 637.999348958 723 638 c 0
 683.667317708 638 654.000651042 650.666666667 634 676 c 0
 622.667317708 690 615.167317708 716.666666667 611.5 756 c 0
 607.832682292 795.332682292 594.332682292 825.332682292 571 846 c 0
 547.667317708 866 515.333984375 876 474 876 c 0
 407.333333333 876 353.666666667 851.333333333 313 802 c 0
 259 736.667317708 232 650.333984375 232 543 c 0
 232 535.337890625 232.135416667 527.671223958 232.40625 520 c 1
 562 520 l 1
 562 455 l 1
 238.219726562 455 l 1
 248.978841146 381.095052083 273.738932292 313.928385417 312.5 253.5 c 0
 366.167317708 169.833333333 438.667317708 128 530 128 c 0
 595.333333333 128 654 150.333333333 706 195 c 0
 742.667317708 225.667317708 778.333984375 281.333984375 813 362 c 1
 842 348 l 1
 817.333333333 227.333333333 769 134.5 697 69.5 c 0
 625 4.5 545.333333333 -28 458 -28 c 0
 354 -28 263.333333333 15.6666666667 186 103 c 0
 108.666666667 190.333333333 70 308.333333333 70 457 c 0
 70 601 112.833333333 718 198.5 808 c 0
 284.166666667 898 387 943 507 943 c 0
EndSplineSet
EndChar

StartChar: uniE030
Encoding: 57392 57392 48
Width: 909
VWidth: 0
Flags: HW
LayerCount: 2
Back
Fore
SplineSet
839 879 m 1
 471 405 l 1
 563 388.333333333 639.666666667 347 701 281 c 0
 770.333333333 205 805 110.333333333 805 -3 c 0
 805 -126.333333333 773 -228.333333333 709 -309 c 0
 638.333333333 -397.666666667 541 -442 417 -442 c 0
 316.333333333 -442 230.333333333 -403.333333333 159 -326 c 0
 96.3333333333 -258 54.3333333333 -171.333333333 33 -66 c 1
 62 -52 l 1
 129.333333333 -208 223.666666667 -286 345 -286 c 0
 444.333333333 -286 520.333333333 -253.333333333 573 -188 c 0
 619.666666667 -130 643 -53 643 43 c 0
 643 247.666666667 516 350 262 350 c 1
 262 386 l 1
 622 846 l 1
 312 846 l 2
 260 846 226.666666667 844.666666667 212 842 c 0
 177.333333333 834.666666667 152 816 136 786 c 0
 118 752.666666667 107.666666667 711.333333333 105 662 c 1
 65 662 l 1
 71 916 l 1
 839 916 l 1
 839 879 l 1
EndSplineSet
EndChar

StartChar: uniE031
Encoding: 57393 57393 49
Width: 809
VWidth: 0
Flags: HW
LayerCount: 2
Back
Fore
SplineSet
84 629 m 1
 84 916 l 1
 126 916 l 1
 138 905.333333333 151.333333333 900 166 900 c 0
 177.333333333 900 202 905.333333333 240 916 c 0
 303.333333333 934 355 943 395 943 c 0
 483 943 556.5 922.666666667 615.5 882 c 0
 674.5 841.333333333 704 787.333333333 704 720 c 0
 704 616.666666667 625.666666667 541.666666667 469 495 c 1
 651.666666667 457 743 371.333333333 743 238 c 0
 743 168 713.666666667 106.166666667 655 52.5 c 0
 596.333333333 -1.16666666667 511 -28 399 -28 c 0
 325.666666667 -28 261.166666667 -14.8333333333 205.5 11.5 c 0
 149.833333333 37.8333333333 89.3333333333 82.3333333333 24 145 c 1
 50 171 l 1
 159.333333333 86.3333333333 263 44 361 44 c 0
 417 44 463 63 499 101 c 0
 535 139 553 188.333333333 553 249 c 0
 553 381.666666667 467.333333333 452 296 460 c 1
 296 518 l 1
 376.666666667 518 435.166666667 539.5 471.5 582.5 c 0
 507.833333333 625.5 526 671.666666667 526 721 c 0
 526 764.333333333 510.5 802.333333333 479.5 835 c 0
 448.5 867.666666667 407.333333333 884 356 884 c 0
 237.333333333 884 158.666666667 799 120 629 c 1
 84 629 l 1
EndSplineSet
EndChar

StartChar: uniE032
Encoding: 57394 57394 50
Width: 1024
VWidth: 0
Flags: HW
LayerCount: 2
Back
Fore
SplineSet
1015 -438 m 1
 562 -438 l 1
 562 -402 l 1
 581 -402 l 2
 651 -402 692.666666667 -376.333333333 706 -325 c 0
 708.666666667 -315 710 -283.666666667 710 -231 c 2
 710 582 l 2
 710 653.333333333 703.333333333 706 690 740 c 0
 668 793.333333333 627.333333333 820 568 820 c 0
 488.666666667 820 409.666666667 776.666666667 331 690 c 1
 331 207 l 2
 331 145 334.666666667 106.666666667 342 92 c 0
 360 54.6666666667 406 36 480 36 c 1
 480 0 l 1
 27 0 l 1
 27 36 l 1
 47 36 l 2
 99 36 133 52.6666666667 149 86 c 0
 160.333333333 108 166 148.333333333 166 207 c 2
 166 547 l 2
 166 697 156 780.333333333 136 797 c 0
 125.333333333 805.666666667 111.333333333 810 94 810 c 0
 75.3333333333 810 53 805 27 795 c 1
 12 831 l 1
 288 943 l 1
 331 943 l 1
 331 749 l 1
 438.333333333 878.333333333 540.666666667 943 638 943 c 0
 741.333333333 943 813 889.333333333 853 782 c 0
 867.666666667 742.666666667 875 681.333333333 875 598 c 2
 875 -231 l 2
 875 -316.333333333 891.666666667 -368.666666667 925 -388 c 0
 941.666666667 -397.333333333 971.666666667 -402 1015 -402 c 1
 1015 -438 l 1
EndSplineSet
EndChar

StartChar: uniE033
Encoding: 57395 57395 51
Width: 1024
VWidth: 0
Flags: HW
LayerCount: 2
Back
Fore
SplineSet
953 475 m 0
 953 390.333333333 933.666666667 308 895 228 c 0
 854.333333333 142 799.666666667 77.8333333333 731 35.5 c 0
 662.333333333 -6.83333333333 585.666666667 -28 501 -28 c 0
 363 -28 253.333333333 27 172 137 c 0
 103.333333333 229.666666667 69 333.666666667 69 449 c 0
 69 532.333333333 89 614.333333333 129 695 c 0
 171.666666667 781 227 843.833333333 295 883.5 c 0
 363 923.166666667 435.333333333 943 512 943 c 0
 650.666666667 943 762 890.333333333 846 785 c 0
 917.333333333 695 953 591.666666667 953 475 c 0
760 520 m 1
 748 612.666666667 721.666666667 691 681 755 c 0
 629.666666667 837 563 878 481 878 c 0
 391.666666667 878 327.333333333 830.666666667 288 736 c 0
 265.333333333 682 254.333333333 614.333333333 255 533 c 2
 255 520 l 1
 760 520 l 1
767 398 m 0
 767 411.333333333 766.333333333 430.333333333 765 455 c 1
 258 455 l 1
 266.666666667 355 292.333333333 266 335 188 c 0
 387.666666667 91.3333333333 457.333333333 43 544 43 c 0
 692.666666667 43 767 161.333333333 767 398 c 0
EndSplineSet
EndChar

StartChar: uniE034
Encoding: 57396 57396 52
Width: 569
VWidth: 0
Flags: HW
LayerCount: 2
Back
Fore
SplineSet
515 0 m 1
 54 0 l 1
 54 37 l 1
 99.3333333333 39 126 40.6666666667 134 42 c 0
 162.666666667 48 183 62.6666666667 195 86 c 0
 205.666666667 106.666666667 211 149.666666667 211 215 c 2
 211 701 l 2
 211 749.666666667 210 780.333333333 208 793 c 0
 202 831.666666667 186.666666667 856 162 866 c 0
 144.666666667 873.333333333 108.666666667 877.333333333 54 878 c 1
 54 916 l 1
 515 916 l 1
 515 878 l 1
 444.333333333 878 402 860.333333333 388 825 c 0
 380.666666667 806.333333333 377 765 377 701 c 2
 377 215 l 2
 377 163 377.666666667 132.666666667 379 124 c 0
 384.333333333 88.6666666667 399.666666667 64.6666666667 425 52 c 0
 445.666666667 42 475.666666667 37 515 37 c 1
 515 0 l 1
EndSplineSet
EndChar

StartChar: uniE035
Encoding: 57397 57397 53
Width: 607
VWidth: 0
Flags: HW
LayerCount: 2
Back
Fore
SplineSet
562 879 m 1
 529 879 l 2
 491.666666667 879 464.666666667 868 448 846 c 0
 436.666666667 831.333333333 431 796.666666667 431 742 c 2
 431 306 l 2
 431 217.333333333 411.666666667 144 373 86 c 0
 325 14.6666666667 254.333333333 -21 161 -21 c 0
 127.666666667 -21 97.3333333333 -11 70 9 c 0
 40 31.6666666667 25 59.6666666667 25 93 c 0
 25 140.333333333 48 164 94 164 c 0
 123.333333333 164 150.666666667 134 176 74 c 0
 186.666666667 49.3333333333 200 37 216 37 c 0
 249.333333333 37 266 71 266 139 c 2
 266 742 l 2
 266 808 253.666666667 848 229 862 c 0
 209 873.333333333 188.333333333 879 167 879 c 2
 134 879 l 1
 134 916 l 1
 562 916 l 1
 562 879 l 1
EndSplineSet
EndChar

StartChar: uniE036
Encoding: 57398 57398 54
Width: 1032
VWidth: 0
Flags: HW
LayerCount: 2
Back
Fore
SplineSet
618.65625 130.359375 m 0
 607.44921875 145.426757812 604.807617188 148.297851562 597.890625 157.2734375 c 0
 512.541992188 268.01953125 342.03125 489.65625 342.03125 489.65625 c 1
 342.03125 174 l 2
 342.03125 108 354.364257812 68 379.03125 54 c 0
 399.03125 42.6669921875 419.697265625 37 441.03125 37 c 2
 472.03125 37 l 1
 472.03125 0 l 1
 341 0 l 1
 175 0 l 1
 44.03125 0 l 1
 44.03125 37 l 1
 76.03125 37 l 2
 114.03125 37 141.364257812 48 158.03125 70 c 0
 169.01171875 84.2099609375 174.658203125 117.243164062 175 169 c 2
 175 560 l 1
 175.03125 560.0625 l 1
 175.03125 742 l 2
 175.03125 787.999023438 172.03125 818.666015625 166.03125 834 c 0
 154.03125 863.999023438 124.03125 878.999023438 76.03125 879 c 2
 44.03125 879 l 1
 44.03125 916 l 1
 472.03125 916 l 1
 472.03125 879 l 1
 441.03125 879 l 2
 392.364257812 878.999023438 362.03125 862.999023438 350.03125 831 c 0
 344.697265625 816.999023438 342.03125 787.333007812 342.03125 742 c 2
 342.03125 507.09375 l 1
 601 781 l 2
 704.333007812 889 801.333007812 943 892 943 c 0
 927.333007812 943 955.833007812 934.666992188 977.5 918 c 0
 999.166992188 901.333007812 1010 879.666992188 1010 853 c 0
 1010 827 1001.5 806.333007812 984.5 791 c 0
 967.5 775.666992188 948 768 926 768 c 0
 906.666992188 768 881 776.666992188 849 794 c 0
 817 811.333007812 792.333007812 820 775 820 c 0
 740.333007812 820 702 797.333007812 660 752 c 2
 485 563 l 1
 815 149 l 2
 872.333007812 77 948.333007812 39.6669921875 1043 37 c 1
 1043 0 l 1
 929.90625 0 l 1
 719 0 l 1
 569.90625 0 l 1
 569.90625 37 l 1
 619.239257812 37 643.905273438 51.3330078125 643.90625 80 c 0
 643.90625 93.203125 634.32421875 109.293945312 618.65625 130.359375 c 0
EndSplineSet
EndChar

StartChar: uniE037
Encoding: 57399 57399 55
Width: 1096
VWidth: 0
Flags: HW
LayerCount: 2
Back
Fore
SplineSet
350 282 m 1
 746 740 l 1
 744.666666667 791.333333333 735 827 717 847 c 0
 699 867 668 877.333333333 624 878 c 1
 624 916 l 1
 1050 916 l 1
 1050 878 l 1
 1005.33333333 878 975.333333333 873.5 960 864.5 c 0
 944.666666667 855.5 932.666666667 844.333333333 924 831 c 0
 915.333333333 817.666666667 911 774.333333333 911 701 c 2
 911 215 l 2
 911 144.333333333 914.666666667 102.166666667 922 88.5 c 0
 929.333333333 74.8333333333 940.833333333 62.8333333333 956.5 52.5 c 0
 972.166666667 42.1666666667 1003.33333333 37 1050 37 c 1
 1050 0 l 1
 607 0 l 1
 607 37 l 1
 662.333333333 37 699.333333333 47.1666666667 718 67.5 c 0
 736.666666667 87.8333333333 746 137 746 215 c 2
 746 646 l 1
 350 187 l 1
 351.333333333 130.333333333 359.333333333 91.3333333333 374 70 c 0
 388.666666667 48.6666666667 420.333333333 37.6666666667 469 37 c 1
 469 0 l 1
 46 0 l 1
 46 37 l 1
 105.333333333 37 143.333333333 47.8333333333 160 69.5 c 0
 176.666666667 91.1666666667 185 139.666666667 185 215 c 2
 185 701 l 2
 185 772.333333333 181.333333333 814.5 174 827.5 c 0
 166.666666667 840.5 155.333333333 852.166666667 140 862.5 c 0
 124.666666667 872.833333333 93.3333333333 878 46 878 c 1
 46 916 l 1
 489 916 l 1
 489 878 l 1
 444.333333333 878 414.333333333 873.5 399 864.5 c 0
 383.666666667 855.5 371.666666667 844.333333333 363 831 c 0
 354.333333333 817.666666667 350 774.333333333 350 701 c 2
 350 282 l 1
EndSplineSet
EndChar

StartChar: uniE038
Encoding: 57400 57400 56
Width: 1024
VWidth: 0
Flags: HW
LayerCount: 2
Back
Fore
SplineSet
24.0625 1356 m 1
 455.0625 1356 l 1
 455.0625 1319 l 1
 427.0625 1319 l 2
 373.729492188 1319 347.063476562 1295.66699219 347.0625 1249 c 0
 347.063476562 1227 354.063476562 1199.33398438 368.0625 1166 c 0
 507.758789062 834.147460938 648.116210938 502.575195312 788.46875 171 c 0
 813.135742188 112.333007812 844.135742188 73.3330078125 881.46875 54 c 0
 892.801757812 48 915.135742188 42.3330078125 948.46875 37 c 1
 948.46875 0 l 1
 517.46875 0 l 1
 517.46875 37 l 1
 545.46875 37 l 2
 598.801757812 37 625.46875 60.3330078125 625.46875 107 c 0
 625.46875 129 618.46875 156.666992188 604.46875 190 c 2
 502.03125 433.34375 l 1
 391.1875 695.34375 l 1
 177.46875 171 l 2
 162.135742188 133.666992188 154.46875 105.333007812 154.46875 86 c 0
 154.46875 76.6669921875 157.135742188 69 162.46875 63 c 0
 175.135742188 45.6669921875 207.46875 37 259.46875 37 c 1
 259.46875 0 l 1
 -39.53125 0 l 1
 -39.53125 37 l 1
 -4.8642578125 39.6669921875 19.1357421875 46.6669921875 32.46875 58 c 0
 54.46875 77.3330078125 75.46875 110.666992188 95.46875 158 c 2
 354 783.25 l 1
 184.0625 1185 l 2
 159.396484375 1243.66699219 128.396484375 1282.66699219 91.0625 1302 c 0
 79.73046875 1308 57.396484375 1313.66699219 24.0625 1319 c 1
 24.0625 1356 l 1
EndSplineSet
EndChar

StartChar: uniE039
Encoding: 57401 57401 57
Width: 1296
VWidth: 0
Flags: HW
LayerCount: 2
Back
Fore
SplineSet
656 239 m 1
 942 916 l 1
 1251 916 l 1
 1251 878 l 1
 1205.66666667 878 1175.5 873.5 1160.5 864.5 c 0
 1145.5 855.5 1133.66666667 844.333333333 1125 831 c 0
 1116.33333333 817.666666667 1112 774.333333333 1112 701 c 2
 1112 215 l 2
 1112 151.666666667 1115.16666667 110.833333333 1121.5 92.5 c 0
 1127.83333333 74.1666666667 1140.83333333 60.3333333333 1160.5 51 c 0
 1180.16666667 41.6666666667 1210.33333333 37 1251 37 c 1
 1251 0 l 1
 808 0 l 1
 808 37 l 1
 862.666666667 37 899.333333333 47.1666666667 918 67.5 c 0
 936.666666667 87.8333333333 946 137 946 215 c 2
 946 766 l 1
 622 0 l 1
 587 0 l 1
 257 766 l 1
 257 -223 l 2
 257 -286.333333333 260.333333333 -327.166666667 267 -345.5 c 0
 273.666666667 -363.833333333 286.666666667 -377.666666667 306 -387 c 0
 325.333333333 -396.333333333 355.333333333 -401 396 -401 c 1
 396 -438 l 1
 46 -438 l 1
 46 -401 l 1
 105.333333333 -401 143.333333333 -390.166666667 160 -368.5 c 0
 176.666666667 -346.833333333 185 -298.333333333 185 -223 c 2
 185 701 l 2
 185 772.333333333 181.333333333 814.5 174 827.5 c 0
 166.666666667 840.5 155.333333333 852.166666667 140 862.5 c 0
 124.666666667 872.833333333 93.3333333333 878 46 878 c 1
 46 916 l 1
 368 916 l 1
 656 239 l 1
EndSplineSet
EndChar

StartChar: uniE03A
Encoding: 57402 57402 58
Width: 1024
VWidth: 0
Flags: HW
LayerCount: 2
Back
Fore
SplineSet
17 916 m 1
 448 916 l 1
 448 879 l 1
 420 879 l 2
 394 879 374.166666667 872.666666667 360.5 860 c 0
 346.833333333 847.333333333 340 830.333333333 340 809 c 0
 340 785.666666667 347 758 361 726 c 2
 574 220 l 1
 788 745 l 2
 803.333333333 782.333333333 811 810.666666667 811 830 c 0
 811 839.333333333 808.333333333 847 803 853 c 0
 795.666666667 863 786.333333333 869.833333333 775 873.5 c 0
 763.666666667 877.166666667 740.666666667 879 706 879 c 1
 706 916 l 1
 1005 916 l 1
 1005 879 l 1
 970.333333333 876.333333333 946.333333333 869.333333333 933 858 c 0
 909.666666667 838 888.666666667 804.666666667 870 758 c 2
 545 -28 l 1
 504 -28 l 1
 177 745 l 2
 162.333333333 781 148.333333333 806.833333333 135 822.5 c 0
 121.666666667 838.166666667 104.666666667 851.333333333 84 862 c 0
 72.6666666667 868 50.3333333333 873.666666667 17 879 c 1
 17 916 l 1
EndSplineSet
EndChar

StartChar: uniE03B
Encoding: 57403 57403 59
Width: 1479
VWidth: 0
Flags: HW
LayerCount: 2
Back
Fore
SplineSet
13 916 m 1
 397 916 l 1
 397 879 l 1
 361.666992188 876.333007812 338.5 870 327.5 860 c 0
 316.5 850 311 835.666992188 311 817 c 0
 311 796.333007812 316.666992188 771.333007812 328 742 c 2
 524 215 l 1
 721 644 l 1
 669 779 l 2
 653 819 632 846.666992188 606 862 c 0
 591.333007812 871.333007812 564 877 524 879 c 1
 524 916 l 1
 960 916 l 1
 960 879 l 1
 912 877 878 868.333007812 858 853 c 0
 844.666992188 842.333007812 838 825.333007812 838 802 c 0
 838 788.666992188 840.666992188 775 846 761 c 2
 1054 235 l 1
 1247 742 l 2
 1260.33300781 778 1267 806.666992188 1267 828 c 0
 1267 840.666992188 1260.5 852 1247.5 862 c 0
 1234.5 872 1209 877.666992188 1171 879 c 1
 1171 916 l 1
 1460 916 l 1
 1460 879 l 1
 1402 870.333007812 1359.33300781 831 1332 761 c 2
 1096.125 152.8125 l 1
 1096.125 -194 l 2
 1096.125 -270 1099.79199219 -317.666992188 1107.125 -337 c 0
 1112.45800781 -351.666992188 1123.79199219 -364.333007812 1141.125 -375 c 0
 1165.125 -389.666992188 1193.45800781 -397 1226.125 -397 c 2
 1267.125 -397 l 1
 1267.125 -438 l 1
 752.125 -438 l 1
 752.125 -397 l 1
 784.125 -397 l 2
 862.791992188 -397 908.458007812 -369.333007812 921.125 -314 c 0
 923.791992188 -302 925.125 -262 925.125 -194 c 2
 925.125 124.96875 l 1
 756 557 l 1
 489 -28 l 1
 452 -28 l 1
 158 742 l 2
 138.666992188 790.666992188 119.666992188 823.5 101 840.5 c 0
 82.3330078125 857.5 53 870.333007812 13 879 c 1
 13 916 l 1
EndSplineSet
EndChar

StartChar: uniE03C
Encoding: 57404 57404 60
Width: 1024
VWidth: 0
Flags: HW
LayerCount: 2
Back
Fore
SplineSet
512 943 m 0
 650.666666667 943 762 890.333333333 846 785 c 0
 917.333333333 695 953 591.666666667 953 475 c 0
 953 393 933.333333333 310 894 226 c 0
 854.666666667 142 800.5 78.6666666667 731.5 36 c 0
 662.5 -6.66666666667 585.666666667 -28 501 -28 c 0
 363 -28 253.333333333 27 172 137 c 0
 103.333333333 229.666666667 69 333.666666667 69 449 c 0
 69 533 89.8333333333 616.5 131.5 699.5 c 0
 173.166666667 782.5 228 843.833333333 296 883.5 c 0
 364 923.166666667 436 943 512 943 c 0
481 878 m 0
 445.666666667 878 410.166666667 867.5 374.5 846.5 c 0
 338.833333333 825.5 310 788.666666667 288 736 c 0
 266 683.333333333 255 615.666666667 255 533 c 0
 255 399.666666667 281.5 284.666666667 334.5 188 c 0
 387.5 91.3333333333 457.333333333 43 544 43 c 0
 608.666666667 43 662 69.6666666667 704 123 c 0
 746 176.333333333 767 268 767 398 c 0
 767 560.666666667 732 688.666666667 662 782 c 0
 614.666666667 846 554.333333333 878 481 878 c 0
EndSplineSet
EndChar

StartChar: uniE03D
Encoding: 57405 57405 61
Width: 1293
VWidth: 0
Flags: HW
LayerCount: 2
Back
Fore
SplineSet
448 917 m 1
 1240 917 l 1
 1280 669 l 5
 1235 669 l 1
 1227 719 1213.66699219 757.666992188 1195 785 c 0
 1176.33300781 812.333007812 1155 830.333007812 1131 839 c 0
 1107 847.666992188 1066 852 1008 852 c 1
 1008 215 l 2
 1007.99902344 144.333007812 1011.66601562 102.166992188 1019 88.5 c 0
 1026.33203125 74.8330078125 1037.83203125 62.8330078125 1053.5 52.5 c 0
 1069.16601562 42.1669921875 1100.33203125 37 1147 37 c 1
 1147 0 l 1
 704 0 l 1
 704 37 l 1
 759.333007812 37 796.333007812 47.1669921875 815 67.5 c 0
 833.666015625 87.8330078125 842.999023438 137 843 215 c 2
 843 851 l 1
 447 851 l 1
 447 215 l 2
 447 144.333007812 450.666015625 102.166992188 458 88.5 c 0
 465.333007812 74.8330078125 476.833007812 62.8330078125 492.5 52.5 c 0
 508.166015625 42.1669921875 539.333007812 37 586 37 c 1
 586 0 l 1
 143 0 l 1
 143 37 l 1
 202.333007812 37 240.333007812 47.8330078125 257 69.5 c 0
 273.666015625 91.1669921875 282 139.666015625 282 215 c 2
 282 851 l 1
 224.666992188 851 185.666992188 847.5 165 840.5 c 0
 144.333007812 833.5 124.5 816.833007812 105.5 790.5 c 0
 86.5 764.166992188 70.3330078125 723.333007812 57 668 c 1
 12 668 l 1
 50 916 l 1
 282 916 l 1
 455.375 916 l 1
 448 917 l 1
EndSplineSet
EndChar

StartChar: uniE03E
Encoding: 57406 57406 62
Width: 1024
VWidth: 0
Flags: HW
LayerCount: 2
Back
Fore
SplineSet
-2 825 m 1
 280 939 l 1
 318 939 l 1
 318 725 l 1
 365.333333333 805.666666667 412.833333333 862.166666667 460.5 894.5 c 0
 508.166666667 926.833333333 558.333333333 943 611 943 c 0
 703 943 779.666666667 907 841 835 c 0
 916.333333333 747 954 632.333333333 954 491 c 0
 954 333 908.666666667 202.333333333 818 99 c 0
 743.333333333 14.3333333333 649.333333333 -28 536 -28 c 0
 486.666666667 -28 444 -21 408 -7 c 0
 381.333333333 3 351.333333333 23 318 53 c 1
 318 -226 l 2
 318 -288.666666667 321.833333333 -328.5 329.5 -345.5 c 0
 337.166666667 -362.5 350.5 -376 369.5 -386 c 0
 388.5 -396 423 -401 473 -401 c 1
 473 -438 l 1
 -7 -438 l 1
 -7 -401 l 1
 18 -401 l 2
 54.6666666667 -401.666666667 86 -394.666666667 112 -380 c 0
 124.666666667 -372.666666667 134.5 -360.833333333 141.5 -344.5 c 0
 148.5 -328.166666667 152 -286.666666667 152 -220 c 2
 152 646 l 2
 152 705.333333333 149.333333333 743 144 759 c 0
 138.666666667 775 130.166666667 787 118.5 795 c 0
 106.833333333 803 91 807 71 807 c 0
 55 807 34.6666666667 802.333333333 10 793 c 1
 -2 825 l 1
318 666 m 1
 318 324 l 2
 318 250 321 201.333333333 327 178 c 0
 336.333333333 139.333333333 359.166666667 105.333333333 395.5 76 c 0
 431.833333333 46.6666666667 477.666666667 32 533 32 c 0
 599.666666667 32 653.666666667 58 695 110 c 0
 749 178 776 273.666666667 776 397 c 0
 776 537 745.333333333 644.666666667 684 720 c 0
 641.333333333 772 590.666666667 798 532 798 c 0
 500 798 468.333333333 790 437 774 c 0
 413 762 373.333333333 726 318 666 c 1
EndSplineSet
EndChar

StartChar: uniE03F
Encoding: 57407 57407 63
Width: 909
VWidth: 0
Flags: HW
LayerCount: 2
Back
Fore
SplineSet
745.967773438 -340.490234375 m 1
 745.967773438 -340.493164062 l 1
 681.99609375 -409.25390625 600.348632812 -443.7734375 500.200195312 -442.264648438 c 0
 490.353515625 -442.108398438 481.9765625 -441.525390625 473.536132812 -440.927734375 c 0
 397.192382812 -433.490234375 325.801757812 -398.5390625 275.767578125 -357.376953125 c 0
 219.715820312 -311.264648438 193.993164062 -265.616210938 193.993164062 -219.606445312 c 0
 193.993164062 -197.279296875 200.479492188 -181.0234375 213.993164062 -168.053710938 c 0
 227.279296875 -155.297851562 245.868164062 -148.499023438 272.657226562 -148.499023438 c 0
 308.883789062 -148.499023438 333.709960938 -159.623046875 350.875976562 -181.384765625 c 0
 358.53125 -190.852539062 366.42578125 -215.58203125 369.985351562 -253.826171875 c 0
 373.501953125 -291.603515625 385.873046875 -322.844726562 407.76171875 -345.823242188 c 0
 435.528320312 -375.775390625 470.147460938 -377.487304688 504.422851562 -382.487304688 c 0
 515.840820312 -384.150390625 525.83203125 -384.932617188 536.19921875 -384.932617188 c 0
 632.681640625 -384.932617188 711.302734375 -299.568359375 711.302734375 -187.163085938 c 0
 711.302734375 -159.061523438 705.724609375 -132.791015625 697.081054688 -107.612304688 c 0
 690.265625 -87.7578125 681.51953125 -69.048828125 668.637695312 -51.61328125 c 0
 633.22265625 -2.7314453125 548.846679688 62.4619140625 415.759765625 143.932617188 c 0
 307.236328125 210.413085938 233.250976562 261.293945312 193.547851562 296.814453125 c 0
 153.8515625 332.336914062 123.41796875 374.354492188 101.998046875 422.5859375 c 0
 80.5751953125 470.818359375 70 521.341796875 70 574.134765625 c 0
 70 674.51171875 103.96484375 761.004882812 172.215820312 833.677734375 c 0
 236.211914062 901.810546875 317.372070312 938.3046875 415.759765625 942.561523438 c 0
 449.694335938 943.924804688 487.060546875 941.899414062 520.200195312 939.395507812 c 0
 601.336914062 933.265625 665.071289062 909.922851562 718.858398438 865.676757812 c 0
 776.850585938 817.961914062 805.96484375 768.177734375 805.96484375 716.793945312 c 0
 805.961914062 691.436523438 797.8515625 671.142578125 781.521484375 655.463867188 c 0
 765.1875 639.780273438 742.412109375 631.908203125 713.080078125 631.908203125 c 0
 673.749023438 631.908203125 643.748046875 644.771484375 623.75 670.129882812 c 0
 612.419921875 684.141601562 605.1953125 710.750976562 601.530273438 750.126953125 c 0
 598.40625 783.643554688 590.705078125 812.810546875 563.30859375 836.788085938 c 0
 518.72265625 875.810546875 475.727539062 888.341796875 431.315429688 888.341796875 c 0
 315.491210938 888.341796875 219.9375 785.837890625 222.436523438 644.797851562 c 0
 222.92578125 617.155273438 225.107421875 603.778320312 240.213867188 566.133789062 c 0
 259.95703125 516.9375 286.19140625 486.374023438 319.3203125 457.694335938 c 0
 341.59765625 438.14453125 402.150390625 396.803710938 501.534179688 333.255859375 c 0
 600.921875 269.709960938 671.541992188 219.065429688 713.525390625 181.264648438 c 0
 755.505859375 143.4609375 787.372070312 101.564453125 809.075195312 55.935546875 c 0
 830.780273438 10.3134765625 841.962890625 -39.9697265625 841.962890625 -94.72265625 c 0
 841.962890625 -189.879882812 809.940429688 -271.724609375 745.967773438 -340.490234375 c 1
EndSplineSet
EndChar

StartChar: uniE040
Encoding: 57408 57408 64
Width: 909
VWidth: 0
Flags: HW
LayerCount: 2
Back
Fore
SplineSet
842 348 m 1
 817.333333333 227.333333333 769 134.5 697 69.5 c 0
 625 4.5 545.333333333 -28 458 -28 c 0
 354 -28 263.333333333 15.6666666667 186 103 c 0
 108.666666667 190.333333333 70 308.333333333 70 457 c 0
 70 601 112.833333333 718 198.5 808 c 0
 284.166666667 898 387 943 507 943 c 0
 597 943 671 919.166666667 729 871.5 c 0
 787 823.833333333 816 774.333333333 816 723 c 0
 816 697.666666667 807.833333333 677.166666667 791.5 661.5 c 0
 775.166666667 645.833333333 752.333333333 638 723 638 c 0
 683.666666667 638 654 650.666666667 634 676 c 0
 622.666666667 690 615.166666667 716.666666667 611.5 756 c 0
 607.833333333 795.333333333 594.333333333 825.333333333 571 846 c 0
 547.666666667 866 515.333333333 876 474 876 c 0
 407.333333333 876 353.666666667 851.333333333 313 802 c 0
 259 736.666666667 232 650.333333333 232 543 c 0
 232 433.666666667 258.833333333 337.166666667 312.5 253.5 c 0
 366.166666667 169.833333333 438.666666667 128 530 128 c 0
 595.333333333 128 654 150.333333333 706 195 c 0
 742.666666667 225.666666667 778.333333333 281.333333333 813 362 c 1
 842 348 l 1
EndSplineSet
EndChar

StartChar: uniE041
Encoding: 57409 57409 65
Width: 895
VWidth: 0
Flags: HW
LayerCount: 2
Back
Fore
SplineSet
50 916 m 1
 842 916 l 1
 882 668 l 1
 837 668 l 1
 829 718 815.666666667 756.666666667 797 784 c 0
 778.333333333 811.333333333 757 829.333333333 733 838 c 0
 709 846.666666667 668 851 610 851 c 2
 530 851 l 1
 530 215 l 2
 530 147 534.166666667 103.833333333 542.5 85.5 c 0
 550.833333333 67.1666666667 564.333333333 55 583 49 c 0
 601.666666667 43 644.333333333 39 711 37 c 1
 711 0 l 1
 213 0 l 1
 213 37 l 1
 277 38.3333333333 318.166666667 48.6666666667 336.5 68 c 0
 354.833333333 87.3333333333 364 136.333333333 364 215 c 2
 364 851 l 1
 282 851 l 2
 224.666666667 851 185.666666667 847.5 165 840.5 c 0
 144.333333333 833.5 124.5 816.833333333 105.5 790.5 c 0
 86.5 764.166666667 70.3333333333 723.333333333 57 668 c 1
 12 668 l 1
 50 916 l 1
EndSplineSet
EndChar

StartChar: uniE042
Encoding: 57410 57410 66
Width: 1100
VWidth: 0
Flags: HW
LayerCount: 2
Back
Fore
SplineSet
1055 879 m 1
 1021 879 l 2
 985 879 957.333333333 864 938 834 c 0
 928 818.666666667 923 786.333333333 923 737 c 2
 923 378 l 2
 923 244 897.333333333 145.666666667 846 83 c 0
 790.666666667 14.3333333333 699 -20 571 -20 c 0
 424.333333333 -20 320 17.3333333333 258 92 c 0
 204.666666667 157.333333333 178 259 178 397 c 2
 178 742 l 2
 178 789.333333333 173 822 163 840 c 0
 149 866 121 879 79 879 c 2
 45 879 l 1
 45 916 l 1
 475 916 l 1
 475 879 l 1
 439 879 l 2
 401 879 374 867.333333333 358 844 c 0
 347.333333333 828.666666667 342 794.666666667 342 742 c 2
 342 368 l 2
 342 267.333333333 356.666666667 192.333333333 386 143 c 0
 423.333333333 81 487.666666667 50 579 50 c 0
 689.666666667 50 765.333333333 83 806 149 c 0
 836 198.333333333 851 280.666666667 851 396 c 2
 851 742 l 2
 851 799.333333333 844.666666667 835.333333333 832 850 c 0
 814.666666667 869.333333333 788.333333333 879 753 879 c 2
 719 879 l 1
 719 916 l 1
 1055 916 l 1
 1055 879 l 1
EndSplineSet
EndChar

StartChar: uniE043
Encoding: 57411 57411 67
Width: 1024
VWidth: 0
Flags: HW
LayerCount: 2
Back
Fore
SplineSet
12 916 m 1
 439 916 l 1
 439 879 l 1
 418 879 l 2
 388 879 365.5 872.5 350.5 859.5 c 0
 335.5 846.5 328 830.333333333 328 811 c 0
 328 785 339 749 361 703 c 2
 584 241 l 1
 789 747 l 2
 800.333333333 774.333333333 806 801.333333333 806 828 c 0
 806 840 803.666666667 849 799 855 c 0
 793.666666667 862.333333333 785.333333333 868.166666667 774 872.5 c 0
 762.666666667 876.833333333 742.666666667 879 714 879 c 1
 714 916 l 1
 1012 916 l 1
 1012 879 l 1
 987.333333333 876.333333333 968.333333333 871 955 863 c 0
 941.666666667 855 927 840 911 818 c 0
 905 808.666666667 893.666666667 783 877 741 c 2
 504 -173 l 2
 468 -261.666666667 420.833333333 -328.666666667 362.5 -374 c 0
 304.166666667 -419.333333333 248 -442 194 -442 c 0
 154.666666667 -442 122.333333333 -430.666666667 97 -408 c 0
 71.6666666667 -385.333333333 59 -359.333333333 59 -330 c 0
 59 -302 68.1666666667 -279.5 86.5 -262.5 c 0
 104.833333333 -245.5 130 -237 162 -237 c 0
 184 -237 214 -244.333333333 252 -259 c 0
 278.666666667 -269 295.333333333 -274 302 -274 c 0
 322 -274 343.833333333 -263.666666667 367.5 -243 c 0
 391.166666667 -222.333333333 415 -182.333333333 439 -123 c 2
 504 36 l 1
 175 727 l 2
 165 747.666666667 149 773.333333333 127 804 c 0
 110.333333333 827.333333333 96.6666666667 843 86 851 c 0
 70.6666666667 861.666666667 46 871 12 879 c 1
 12 916 l 1
EndSplineSet
EndChar

StartChar: uniE044
Encoding: 57412 57412 68
Width: 1133
VWidth: 0
Flags: HW
LayerCount: 2
Back
Fore
SplineSet
1064 466 m 0
 1064 330 1025.33333333 218.333333333 948 131 c 0
 875.333333333 48.3333333333 778.333333333 -2.33333333333 657 -21 c 1
 657 -223 l 2
 657 -275 657.666666667 -305.333333333 659 -314 c 0
 664.333333333 -349.333333333 679.666666667 -373.333333333 705 -386 c 0
 725.666666667 -396 755.666666667 -401 795 -401 c 1
 795 -438 l 1
 334 -438 l 1
 334 -401 l 1
 379.333333333 -399 406 -397.333333333 414 -396 c 0
 442.666666667 -390 463 -375.333333333 475 -352 c 0
 485.666666667 -331.333333333 491 -288.333333333 491 -223 c 2
 491 -25 l 1
 361.666666667 -12.3333333333 260 33 186 111 c 0
 108 194.333333333 69 307 69 449 c 0
 69 587.666666667 109 701 189 789 c 0
 265 872.333333333 365.666666667 922 491 938 c 1
 491 1207 l 2
 491 1255.66666667 490 1286.33333333 488 1299 c 0
 482 1337.66666667 466.666666667 1362 442 1372 c 0
 424.666666667 1379.33333333 388.666666667 1383.33333333 334 1384 c 1
 334 1422 l 1
 795 1422 l 1
 795 1384 l 1
 724.333333333 1384 682 1366.33333333 668 1331 c 0
 660.666666667 1312.33333333 657 1271 657 1207 c 2
 657 938 l 1
 782.333333333 923.333333333 880.333333333 877 951 799 c 0
 1026.33333333 716.333333333 1064 605.333333333 1064 466 c 0
878 382 m 0
 878 490.666666667 861 586 827 668 c 0
 788.333333333 762 731.666666667 824.666666667 657 856 c 1
 657 43 l 1
 804.333333333 72.3333333333 878 185.333333333 878 382 c 0
491 53 m 1
 491 874 l 1
 413.666666667 862.666666667 354.333333333 825.333333333 313 762 c 0
 274.333333333 702.666666667 255 626.333333333 255 533 c 0
 255 420.333333333 273 322.333333333 309 239 c 0
 350.333333333 143 411 81 491 53 c 1
EndSplineSet
EndChar

StartChar: uniE045
Encoding: 57413 57413 69
Width: 1071
VWidth: 0
Flags: HW
LayerCount: 2
Back
Fore
SplineSet
517 1390 m 1
 741 1390 l 1
 446 1045 l 1
 412 1045 l 1
 517 1390 l 1
511 944 m 0
 583.666992188 944 645.333007812 925.333007812 696 888 c 1
 833 943 l 1
 877 943 l 1
 877 795 l 1
 877 262.9375 l 2
 878.157226562 213.776367188 880.333984375 181.630859375 883.53125 166.5 c 0
 888.530273438 142.833007812 896.530273438 126.333007812 907.53125 117 c 0
 918.530273438 107.666015625 931.36328125 102.999023438 946.03125 103 c 0
 963.9765625 103 987.9765625 108.676757812 1018.03125 120.03125 c 1
 1029 85 l 1
 757 -28 l 1
 711 -28 l 1
 711 90.0625 l 1
 630.008789062 11.357421875 540.341796875 -27.9970703125 442 -28 c 0
 328.666992188 -28 236.333007812 19.6669921875 165 115 c 0
 100.333007812 201.666992188 68 303.333007812 68 420 c 0
 68 554 107.666992188 672.666992188 187 776 c 0
 273 888 381 944 511 944 c 0
499 882 m 0
 414.333007812 882 349.333007812 836.666992188 304 746 c 0
 268.666992188 674.666992188 251 592.333007812 251 499 c 0
 251 396.333007812 272.333007812 305.666992188 315 227 c 0
 367 130.333007812 440.333007812 82 535 82 c 0
 597.666992188 82 656.333984375 109.333007812 711 164 c 1
 711 560 l 2
 711 774.666992188 640.333007812 882 499 882 c 0
EndSplineSet
EndChar

StartChar: uniE046
Encoding: 57414 57414 70
Width: 1479
VWidth: 0
Flags: HW
LayerCount: 2
Back
Fore
SplineSet
490 943 m 1
 561.333333333 943 623.333333333 928.333333333 676 899 c 0
 730.822265625 868.465494792 774.270182292 828.569335938 806.34375 779.311523438 c 1
 813.591145833 789.346028646 821.143229167 798.908528646 829 807.999023438 c 0
 906.781901042 897.999023438 1000.15690104 942.999023438 1109.125 942.999023438 c 0
 1190.84179688 942.999023438 1258.02929688 919.165690104 1310.6875 871.499023438 c 0
 1363.34960938 823.832356771 1389.68294271 774.332356771 1389.6875 722.999023438 c 0
 1389.6875 697.666341146 1382.27083333 677.166341146 1367.4375 661.499023438 c 0
 1352.60742188 645.832356771 1331.87825521 637.999023438 1305.25 637.999023438 c 0
 1269.53710938 637.999023438 1242.59960938 650.665690104 1224.4375 675.999023438 c 0
 1214.140625 690.008138021 1207.328125 716.674804688 1204 755.999023438 c 0
 1200.67057292 795.332356771 1188.41015625 825.332356771 1167.21875 845.999023438 c 0
 1146.03320312 865.999023438 1116.67903646 875.999023438 1079.15625 875.999023438 c 0
 1018.625 875.999023438 969.895507812 851.332356771 932.967773438 801.999023438 c 0
 883.937825521 736.666341146 859.427408854 650.333007812 859.436523438 542.999023438 c 0
 859.436523438 535.454752604 859.561523438 527.788085938 859.811523438 519.999023438 c 1
 1159.06152344 519.999023438 l 1
 1159.06152344 454.999023438 l 1
 865.061523438 454.999023438 l 1
 874.827148438 381.127278646 897.316731771 313.960611979 932.530273438 253.499023438 c 0
 981.258138021 169.832356771 1047.08138021 127.999023438 1130 127.999023438 c 0
 1189.328125 127.999023438 1242.59863281 150.332356771 1289.81152344 194.999023438 c 0
 1323.10904948 225.671549479 1355.49446615 281.338216146 1386.96777344 361.999023438 c 1
 1413.28027344 347.999023438 l 1
 1390.88378906 227.332356771 1346.9983724 134.499023438 1281.62402344 69.4990234375 c 0
 1216.25097656 4.4990234375 1143.91764323 -28.0009765625 1064.62402344 -28.0009765625 c 0
 970.196289062 -28.0009765625 887.873372396 15.6656901042 817.655273438 102.999023438 c 0
 811.116210938 111.131835938 804.793294271 119.725585938 798.686523438 128.780273438 c 1
 758.146809896 77.5387369792 712.083984375 38.7786458333 660.498046875 12.5 c 0
 607.498046875 -14.5 548.664713542 -28 483.998046875 -28 c 0
 366.664713542 -28 267.831380208 14.8333333333 187.498046875 100.5 c 0
 107.164713542 186.166666667 66.998046875 300.333333333 66.998046875 443 c 0
 66.998046875 595.666666667 108.164713542 717.166666667 190.498046875 807.5 c 0
 272.831380208 897.833333333 372.664713542 943 489.998046875 943 c 1
 490 943 l 1
453 888 m 0
 429 888 400.5 879.166666667 367.5 861.5 c 0
 334.5 843.832682292 309 813.666015625 291 771 c 0
 266.332682292 715.667317708 253.999348958 638.333984375 254 539 c 0
 254 367 288 231.666666667 356 133 c 0
 397.332682292 73 448.332682292 43 509 43 c 0
 568.332682292 43 617.499348958 67.6666666667 656.5 117 c 0
 695.5 166.332682292 715 253.332682292 715 378 c 0
 715 533.333333333 692.5 657.166666667 647.5 749.5 c 0
 602.5 841.833333333 537.666666667 888 453 888 c 0
1006.80078125 1390 m 1
 711.80078125 1045 l 1
 677.80078125 1045 l 1
 782.80078125 1390 l 1
 1006.80078125 1390 l 1
EndSplineSet
EndChar

StartChar: uniE047
Encoding: 57415 57415 71
Width: 879
VWidth: 0
Flags: HW
LayerCount: 2
Back
Fore
SplineSet
488 1390 m 1
 712 1390 l 1
 417 1045 l 1
 383 1045 l 1
 488 1390 l 1
507 943 m 0
 597 943 671 919.166992188 729 871.5 c 0
 787 823.833007812 816 774.333007812 816 723 c 0
 816 697.666992188 807.833007812 677.166992188 791.5 661.5 c 0
 775.166992188 645.833007812 752.333984375 638 723 638 c 0
 683.666992188 638 654 650.666992188 634 676 c 0
 622.666992188 690 615.166992188 716.666992188 611.5 756 c 0
 607.833007812 795.333007812 594.333007812 825.333007812 571 846 c 0
 547.666992188 866 515.333984375 876 474 876 c 0
 407.333007812 876 353.666992188 851.333007812 313 802 c 0
 259 736.666992188 232 650.333984375 232 543 c 0
 232 535.337890625 232.135742188 527.670898438 232.40625 520 c 1
 562 520 l 1
 562 455 l 1
 238.21875 455 l 1
 248.978515625 381.095703125 273.739257812 313.928710938 312.5 253.5 c 0
 366.166992188 169.833007812 438.666992188 128 530 128 c 0
 595.333007812 128 654 150.333007812 706 195 c 0
 742.666992188 225.666992188 778.333984375 281.333984375 813 362 c 1
 842 348 l 1
 817.333007812 227.333007812 769 134.5 697 69.5 c 0
 625 4.5 545.333007812 -28 458 -28 c 0
 354 -28 263.333007812 15.6669921875 186 103 c 0
 108.666992188 190.333007812 70 308.333007812 70 457 c 0
 70 601 112.833007812 718 198.5 808 c 0
 284.166992188 898 387 943 507 943 c 0
EndSplineSet
EndChar

StartChar: uniE048
Encoding: 57416 57416 72
Width: 569
VWidth: 0
Flags: HW
LayerCount: 2
Back
Fore
SplineSet
515 0 m 1
 54 0 l 1
 54 37 l 1
 99.3333333333 39 126 40.6666666667 134 42 c 0
 162.666666667 48 183 62.6666666667 195 86 c 0
 205.666666667 106.666666667 211 149.666666667 211 215 c 2
 211 701 l 2
 211 749.666666667 210 780.333333333 208 793 c 0
 202 831.666666667 186.666666667 856 162 866 c 0
 144.666666667 873.333333333 108.666666667 877.333333333 54 878 c 1
 54 916 l 1
 515 916 l 1
 515 878 l 1
 444.333333333 878 402 860.333333333 388 825 c 0
 380.666666667 806.333333333 377 765 377 701 c 2
 377 215 l 2
 377 163 377.666666667 132.666666667 379 124 c 0
 384.333333333 88.6666666667 399.666666667 64.6666666667 425 52 c 0
 445.666666667 42 475.666666667 37 515 37 c 1
 515 0 l 1
529.782226562 1390 m 1
 234.782226562 1045 l 1
 200.782226562 1045 l 1
 305.782226562 1390 l 1
 529.782226562 1390 l 1
EndSplineSet
EndChar

StartChar: uniE049
Encoding: 57417 57417 73
Width: 1100
VWidth: 0
Flags: HW
LayerCount: 2
Back
Fore
SplineSet
1055 879 m 1
 1021 879 l 2
 985 879 957.333333333 864 938 834 c 0
 928 818.666666667 923 786.333333333 923 737 c 2
 923 378 l 2
 923 244 897.333333333 145.666666667 846 83 c 0
 790.666666667 14.3333333333 699 -20 571 -20 c 0
 424.333333333 -20 320 17.3333333333 258 92 c 0
 204.666666667 157.333333333 178 259 178 397 c 2
 178 742 l 2
 178 789.333333333 173 822 163 840 c 0
 149 866 121 879 79 879 c 2
 45 879 l 1
 45 916 l 1
 475 916 l 1
 475 879 l 1
 439 879 l 2
 401 879 374 867.333333333 358 844 c 0
 347.333333333 828.666666667 342 794.666666667 342 742 c 2
 342 368 l 2
 342 267.333333333 356.666666667 192.333333333 386 143 c 0
 423.333333333 81 487.666666667 50 579 50 c 0
 689.666666667 50 765.333333333 83 806 149 c 0
 836 198.333333333 851 280.666666667 851 396 c 2
 851 742 l 2
 851 799.333333333 844.666666667 835.333333333 832 850 c 0
 814.666666667 869.333333333 788.333333333 879 753 879 c 2
 719 879 l 1
 719 916 l 1
 1055 916 l 1
 1055 879 l 1
831.677734375 1390 m 1
 536.677734375 1045 l 1
 502.677734375 1045 l 1
 607.677734375 1390 l 1
 831.677734375 1390 l 1
EndSplineSet
EndChar

StartChar: uniE04A
Encoding: 57418 57418 74
Width: 569
VWidth: 0
Flags: HW
LayerCount: 2
Back
Fore
SplineSet
515 0 m 1
 54 0 l 1
 54 37 l 1
 99.3333333333 39 126 40.6666666667 134 42 c 0
 162.666666667 48 183 62.6666666667 195 86 c 0
 205.666666667 106.666666667 211 149.666666667 211 215 c 2
 211 701 l 2
 211 749.666666667 210 780.333333333 208 793 c 0
 202 831.666666667 186.666666667 856 162 866 c 0
 144.666666667 873.333333333 108.666666667 877.333333333 54 878 c 1
 54 916 l 1
 515 916 l 1
 515 878 l 1
 444.333333333 878 402 860.333333333 388 825 c 0
 380.666666667 806.333333333 377 765 377 701 c 2
 377 215 l 2
 377 163 377.666666667 132.666666667 379 124 c 0
 384.333333333 88.6666666667 399.666666667 64.6666666667 425 52 c 0
 445.666666667 42 475.666666667 37 515 37 c 1
 515 0 l 1
460.786132812 1337 m 0
 490.78515625 1336.99902344 516.28515625 1326.33235677 537.286132812 1305 c 0
 558.28515625 1283.66503906 568.78515625 1257.9983724 568.786132812 1228 c 0
 568.78515625 1197.99902344 558.28515625 1172.49902344 537.286132812 1151.5 c 0
 516.28515625 1130.49902344 490.78515625 1119.99902344 460.786132812 1120 c 0
 430.78515625 1119.99902344 405.118489583 1130.49902344 383.786132812 1151.5 c 0
 362.452148438 1172.49902344 351.785481771 1197.99902344 351.786132812 1228 c 0
 351.78515625 1257.99902344 362.451822917 1283.6656901 383.786132812 1305 c 0
 405.119140625 1326.33203125 430.785807292 1336.99869792 460.786132812 1337 c 0
107.786132812 1337 m 0
 138.452148438 1336.99902344 164.285481771 1326.33235677 185.286132812 1305 c 0
 206.28515625 1283.66503906 216.78515625 1257.9983724 216.786132812 1228 c 0
 216.78515625 1197.99902344 206.118489583 1172.49902344 184.786132812 1151.5 c 0
 163.452148438 1130.49902344 138.118815104 1119.99902344 108.786132812 1120 c 0
 78.7861328125 1119.99902344 53.1194661458 1130.49902344 31.7861328125 1151.5 c 0
 10.4521484375 1172.49902344 -0.214518229167 1197.99902344 -0.2138671875 1228 c 0
 -0.2138671875 1257.99902344 10.2861328125 1283.6656901 31.2861328125 1305 c 0
 52.2861328125 1326.33203125 77.7861328125 1336.99869792 107.786132812 1337 c 0
EndSplineSet
EndChar

StartChar: uniE04B
Encoding: 57419 57419 75
Width: 1100
VWidth: 0
Flags: HW
LayerCount: 2
Back
Fore
SplineSet
1055 879 m 1
 1021 879 l 2
 985 879 957.333333333 864 938 834 c 0
 928 818.666666667 923 786.333333333 923 737 c 2
 923 378 l 2
 923 244 897.333333333 145.666666667 846 83 c 0
 790.666666667 14.3333333333 699 -20 571 -20 c 0
 424.333333333 -20 320 17.3333333333 258 92 c 0
 204.666666667 157.333333333 178 259 178 397 c 2
 178 742 l 2
 178 789.333333333 173 822 163 840 c 0
 149 866 121 879 79 879 c 2
 45 879 l 1
 45 916 l 1
 475 916 l 1
 475 879 l 1
 439 879 l 2
 401 879 374 867.333333333 358 844 c 0
 347.333333333 828.666666667 342 794.666666667 342 742 c 2
 342 368 l 2
 342 267.333333333 356.666666667 192.333333333 386 143 c 0
 423.333333333 81 487.666666667 50 579 50 c 0
 689.666666667 50 765.333333333 83 806 149 c 0
 836 198.333333333 851 280.666666667 851 396 c 2
 851 742 l 2
 851 799.333333333 844.666666667 835.333333333 832 850 c 0
 814.666666667 869.333333333 788.333333333 879 753 879 c 2
 719 879 l 1
 719 916 l 1
 1055 916 l 1
 1055 879 l 1
745.483398438 1337 m 0
 775.482421875 1336.99902344 800.982421875 1326.33235677 821.983398438 1305 c 0
 842.982421875 1283.66503906 853.482421875 1257.9983724 853.483398438 1228 c 0
 853.482421875 1197.99902344 842.982421875 1172.49902344 821.983398438 1151.5 c 0
 800.982421875 1130.49902344 775.482421875 1119.99902344 745.483398438 1120 c 0
 715.482421875 1119.99902344 689.815755208 1130.49902344 668.483398438 1151.5 c 0
 647.149414062 1172.49902344 636.482747396 1197.99902344 636.483398438 1228 c 0
 636.482421875 1257.99902344 647.149088542 1283.6656901 668.483398438 1305 c 0
 689.815429688 1326.33203125 715.482096354 1336.99869792 745.483398438 1337 c 0
392.483398438 1337 m 0
 423.149414062 1336.99902344 448.982747396 1326.33235677 469.983398438 1305 c 0
 490.982421875 1283.66503906 501.482421875 1257.9983724 501.483398438 1228 c 0
 501.482421875 1197.99902344 490.815755208 1172.49902344 469.483398438 1151.5 c 0
 448.149414062 1130.49902344 422.816080729 1119.99902344 393.483398438 1120 c 0
 363.482421875 1119.99902344 337.815755208 1130.49902344 316.483398438 1151.5 c 0
 295.149414062 1172.49902344 284.482747396 1197.99902344 284.483398438 1228 c 0
 284.482421875 1257.99902344 294.982421875 1283.6656901 315.983398438 1305 c 0
 336.982421875 1326.33203125 362.482421875 1336.99869792 392.483398438 1337 c 0
EndSplineSet
EndChar
